<?xml version="1.0" encoding="UTF-8"?>
<svg xmlns="http://www.w3.org/2000/svg" xmlns:xlink="http://www.w3.org/1999/xlink" width="248.796" height="36.946" viewBox="0 0 248.796 36.946">
<defs>
<g>
<g id="glyph-0-0">
<path d="M 0.203125 0.046875 C 0.203125 -0.148438 0.210938 -0.441406 0.234375 -0.828125 C 0.253906 -1.210938 0.265625 -1.503906 0.265625 -1.703125 C 0.265625 -2.585938 0.179688 -4.019531 0.015625 -6 C 0.00390625 -6.101562 0 -6.203125 0 -6.296875 C 0 -6.609375 0.0664062 -6.765625 0.203125 -6.765625 C 0.367188 -6.765625 0.726562 -6.425781 1.28125 -5.75 L 2.359375 -4.4375 C 2.390625 -4.445312 2.550781 -4.648438 2.84375 -5.046875 C 3.226562 -5.578125 3.507812 -5.953125 3.6875 -6.171875 C 4.007812 -6.566406 4.238281 -6.765625 4.375 -6.765625 C 4.46875 -6.765625 4.507812 -6.671875 4.5 -6.484375 L 4.5 -6.421875 L 4.484375 -6.34375 L 4.46875 -5.9375 C 4.4375 -5.570312 4.421875 -5.25 4.421875 -4.96875 C 4.421875 -4.5 4.503906 -3.773438 4.671875 -2.796875 C 4.828125 -1.910156 4.90625 -1.019531 4.90625 -0.125 C 4.90625 -0.03125 4.820312 0.015625 4.65625 0.015625 C 4.457031 0.015625 4.359375 -0.0351562 4.359375 -0.140625 C 4.359375 -0.234375 4.351562 -0.394531 4.34375 -0.625 C 4.320312 -0.988281 4.296875 -1.332031 4.265625 -1.65625 C 4.253906 -1.8125 4.179688 -2.335938 4.046875 -3.234375 C 3.960938 -3.878906 3.921875 -4.410156 3.921875 -4.828125 C 3.921875 -5.046875 3.925781 -5.273438 3.9375 -5.515625 L 3.109375 -4.4375 C 2.628906 -3.832031 2.363281 -3.523438 2.3125 -3.515625 C 2.03125 -3.742188 1.726562 -4.070312 1.40625 -4.5 L 0.578125 -5.5625 C 0.691406 -4.726562 0.753906 -3.335938 0.765625 -1.390625 C 0.765625 -1.210938 0.769531 -0.972656 0.78125 -0.671875 C 0.789062 -0.367188 0.796875 -0.128906 0.796875 0.046875 C 0.796875 0.160156 0.695312 0.21875 0.5 0.21875 C 0.300781 0.21875 0.203125 0.160156 0.203125 0.046875 Z M 0.203125 0.046875 "/>
</g>
<g id="glyph-0-1">
<path d="M 1.3125 -1.96875 C 1.3125 -2.101562 1.421875 -2.171875 1.640625 -2.171875 C 1.816406 -2.171875 1.910156 -2.117188 1.921875 -2.015625 C 1.929688 -1.878906 1.957031 -1.628906 2 -1.265625 C 2.050781 -0.910156 2.101562 -0.398438 2.15625 0.265625 C 2.207031 0.953125 2.234375 1.488281 2.234375 1.875 C 2.234375 2.601562 2.148438 3.125 1.984375 3.4375 C 1.742188 3.863281 1.289062 4.078125 0.625 4.078125 C -0.132812 4.078125 -0.84375 3.78125 -1.5 3.1875 C -1.59375 3.101562 -1.757812 2.945312 -2 2.71875 C -2.03125 2.6875 -2.046875 2.632812 -2.046875 2.5625 C -2.046875 2.488281 -2.023438 2.40625 -1.984375 2.3125 C -1.929688 2.195312 -1.875 2.140625 -1.8125 2.140625 C -1.789062 2.140625 -1.648438 2.265625 -1.390625 2.515625 C -1.109375 2.796875 -0.945312 2.953125 -0.90625 2.984375 C -0.789062 3.085938 -0.65625 3.175781 -0.5 3.25 C -0.144531 3.425781 0.28125 3.515625 0.78125 3.515625 C 1.164062 3.515625 1.410156 3.378906 1.515625 3.109375 C 1.648438 2.773438 1.71875 2.363281 1.71875 1.875 C 1.71875 1.71875 1.671875 1.082031 1.578125 -0.03125 C 1.554688 -0.28125 1.5 -0.75 1.40625 -1.4375 Z M 1.09375 -4.578125 C 1.457031 -4.578125 1.640625 -4.382812 1.640625 -4 C 1.640625 -3.789062 1.535156 -3.6875 1.328125 -3.6875 C 0.960938 -3.6875 0.78125 -3.863281 0.78125 -4.21875 C 0.78125 -4.457031 0.882812 -4.578125 1.09375 -4.578125 Z M 1.09375 -4.578125 "/>
</g>
<g id="glyph-0-2">
<path d="M 0.546875 -2.71875 C 0.546875 -2.132812 0.660156 -1.648438 0.890625 -1.265625 C 1.160156 -0.796875 1.5625 -0.5625 2.09375 -0.5625 C 2.65625 -0.5625 3.125 -0.8125 3.5 -1.3125 C 3.851562 -1.769531 4.03125 -2.285156 4.03125 -2.859375 C 4.03125 -3.160156 3.910156 -3.484375 3.671875 -3.828125 C 3.472656 -4.109375 3.226562 -4.351562 2.9375 -4.5625 C 2.789062 -4.675781 2.6875 -4.734375 2.625 -4.734375 L 2.59375 -4.734375 C 2.582031 -4.722656 2.53125 -4.664062 2.4375 -4.5625 C 2.363281 -4.476562 2.300781 -4.4375 2.25 -4.4375 C 2.164062 -4.4375 2.09375 -4.488281 2.03125 -4.59375 C 1.96875 -4.6875 1.9375 -4.773438 1.9375 -4.859375 C 1.9375 -4.984375 2.046875 -5.125 2.265625 -5.28125 C 2.347656 -5.332031 2.457031 -5.359375 2.59375 -5.359375 C 2.90625 -5.359375 3.25 -5.179688 3.625 -4.828125 C 4.269531 -4.222656 4.59375 -3.597656 4.59375 -2.953125 C 4.59375 -2.210938 4.363281 -1.539062 3.90625 -0.9375 C 3.414062 -0.269531 2.8125 0.0625 2.09375 0.0625 C 1.382812 0.0625 0.84375 -0.253906 0.46875 -0.890625 C 0.15625 -1.410156 0 -2.054688 0 -2.828125 C 0 -2.929688 0.00390625 -3.035156 0.015625 -3.140625 C 0.0351562 -3.503906 0.285156 -4.039062 0.765625 -4.75 C 1.035156 -5.144531 1.238281 -5.390625 1.375 -5.484375 C 1.414062 -5.503906 1.460938 -5.515625 1.515625 -5.515625 C 1.597656 -5.515625 1.679688 -5.492188 1.765625 -5.453125 C 1.867188 -5.410156 1.921875 -5.359375 1.921875 -5.296875 C 1.890625 -5.253906 1.78125 -5.109375 1.59375 -4.859375 C 0.945312 -4.035156 0.609375 -3.460938 0.578125 -3.140625 C 0.554688 -3.003906 0.546875 -2.863281 0.546875 -2.71875 Z M 0.546875 -2.71875 "/>
</g>
<g id="glyph-0-3">
<path d="M 0.375 -2.734375 C 0.375 -2.835938 0.441406 -2.890625 0.578125 -2.890625 C 0.960938 -2.890625 1.15625 -2.644531 1.15625 -2.15625 C 1.15625 -2.03125 1.164062 -1.84375 1.1875 -1.59375 C 1.21875 -1.351562 1.234375 -1.171875 1.234375 -1.046875 C 1.234375 -0.722656 1.222656 -0.429688 1.203125 -0.171875 C 1.191406 -0.046875 1.082031 0.015625 0.875 0.015625 C 0.65625 0.015625 0.546875 -0.046875 0.546875 -0.171875 C 0.546875 -0.234375 0.546875 -0.328125 0.546875 -0.453125 C 0.554688 -0.585938 0.5625 -0.691406 0.5625 -0.765625 C 0.5625 -1.109375 0.53125 -1.523438 0.46875 -2.015625 C 0.40625 -2.460938 0.375 -2.703125 0.375 -2.734375 Z M 0.546875 -4.578125 C 0.929688 -4.578125 1.125 -4.382812 1.125 -4 C 1.125 -3.789062 1.015625 -3.6875 0.796875 -3.6875 C 0.410156 -3.6875 0.21875 -3.863281 0.21875 -4.21875 C 0.21875 -4.457031 0.328125 -4.578125 0.546875 -4.578125 Z M 0.546875 -4.578125 "/>
</g>
<g id="glyph-1-0">
<path d="M 13.828125 10.765625 L 13.578125 10.765625 C 13.1875 11.796875 12.125 12.484375 10.984375 12.78125 C 10.78125 12.828125 9.796875 13.09375 7.890625 13.09375 L 1.875 13.09375 L 6.953125 7.140625 C 7.015625 7.0625 7.03125 7.03125 7.03125 6.984375 C 7.03125 6.984375 7.03125 6.921875 6.96875 6.828125 L 2.328125 0.484375 L 7.78125 0.484375 C 9.125 0.484375 10.03125 0.625 10.125 0.640625 C 10.65625 0.71875 11.53125 0.890625 12.3125 1.390625 C 12.5625 1.546875 13.234375 2 13.578125 2.796875 L 13.828125 2.796875 L 12.625 0 L 0.84375 0 C 0.609375 0 0.59375 0.015625 0.5625 0.0625 C 0.5625 0.09375 0.5625 0.296875 0.5625 0.40625 L 5.828125 7.609375 L 0.671875 13.671875 C 0.5625 13.78125 0.5625 13.84375 0.5625 13.84375 C 0.5625 13.953125 0.65625 13.953125 0.84375 13.953125 L 12.625 13.953125 Z M 13.828125 10.765625 "/>
</g>
<g id="glyph-2-0">
<path d="M 5.609375 -2.515625 C 5.609375 -2.6875 5.453125 -2.6875 5.359375 -2.6875 L 0.75 -2.6875 C 0.65625 -2.6875 0.484375 -2.6875 0.484375 -2.515625 C 0.484375 -2.34375 0.640625 -2.34375 0.75 -2.34375 L 5.359375 -2.34375 C 5.453125 -2.34375 5.609375 -2.34375 5.609375 -2.515625 Z M 5.609375 -0.96875 C 5.609375 -1.15625 5.453125 -1.15625 5.359375 -1.15625 L 0.75 -1.15625 C 0.640625 -1.15625 0.484375 -1.15625 0.484375 -0.96875 C 0.484375 -0.8125 0.65625 -0.8125 0.75 -0.8125 L 5.359375 -0.8125 C 5.453125 -0.8125 5.609375 -0.8125 5.609375 -0.96875 Z M 5.609375 -0.96875 "/>
</g>
<g id="glyph-3-0">
<path d="M 1.59375 -0.125 C 1.59375 -0.0195312 1.523438 0.0625 1.390625 0.125 C 1.285156 0.175781 1.171875 0.203125 1.046875 0.203125 C 0.867188 0.203125 0.765625 0.140625 0.734375 0.015625 C 0.703125 -0.117188 0.679688 -0.289062 0.671875 -0.5 C 0.671875 -0.625 0.675781 -0.8125 0.6875 -1.0625 C 0.695312 -1.320312 0.695312 -1.5 0.6875 -1.59375 C 0.675781 -2.664062 0.632812 -3.503906 0.5625 -4.109375 C 0.53125 -4.367188 0.421875 -4.898438 0.234375 -5.703125 C 0.078125 -6.359375 0 -6.894531 0 -7.3125 C 0 -7.832031 0.226562 -8.382812 0.6875 -8.96875 C 1.164062 -9.570312 1.660156 -9.90625 2.171875 -9.96875 C 2.304688 -9.988281 2.453125 -10 2.609375 -10 C 3.640625 -10 4.539062 -9.628906 5.3125 -8.890625 C 5.988281 -8.253906 6.507812 -7.410156 6.875 -6.359375 C 7.289062 -5.191406 7.5 -3.441406 7.5 -1.109375 C 7.5 -0.753906 7.492188 -0.554688 7.484375 -0.515625 C 7.441406 -0.316406 7.300781 -0.21875 7.0625 -0.21875 C 6.789062 -0.21875 6.65625 -0.351562 6.65625 -0.625 C 6.65625 -0.675781 6.65625 -0.75 6.65625 -0.84375 C 6.664062 -0.945312 6.671875 -1.023438 6.671875 -1.078125 C 6.671875 -1.210938 6.664062 -1.421875 6.65625 -1.703125 C 6.65625 -1.984375 6.65625 -2.191406 6.65625 -2.328125 C 6.65625 -2.597656 6.644531 -2.75 6.625 -2.78125 C 6.601562 -2.820312 6.472656 -2.847656 6.234375 -2.859375 C 5.503906 -2.890625 4.195312 -2.953125 2.3125 -3.046875 C 2.070312 -3.066406 1.863281 -3.082031 1.6875 -3.09375 C 1.550781 -3.101562 1.492188 -3.109375 1.515625 -3.109375 C 1.472656 -3.109375 1.453125 -2.976562 1.453125 -2.71875 C 1.453125 -2.425781 1.472656 -1.992188 1.515625 -1.421875 C 1.566406 -0.847656 1.59375 -0.414062 1.59375 -0.125 Z M 6.5625 -3.6875 C 6.582031 -3.726562 6.59375 -3.789062 6.59375 -3.875 C 6.59375 -4.457031 6.476562 -5.109375 6.25 -5.828125 C 6.007812 -6.609375 5.71875 -7.195312 5.375 -7.59375 C 4.445312 -8.644531 3.5625 -9.171875 2.71875 -9.171875 C 2.570312 -9.171875 2.4375 -9.15625 2.3125 -9.125 C 1.957031 -9.0625 1.617188 -8.828125 1.296875 -8.421875 C 0.984375 -8.023438 0.828125 -7.644531 0.828125 -7.28125 C 0.828125 -7.113281 0.90625 -6.566406 1.0625 -5.640625 C 1.226562 -4.734375 1.335938 -4.175781 1.390625 -3.96875 C 1.460938 -3.957031 2.109375 -3.921875 3.328125 -3.859375 Z M 6.5625 -3.6875 "/>
</g>
<g id="glyph-3-1">
<path d="M 0.921875 -3.875 C 1.023438 -3.875 1.128906 -3.847656 1.234375 -3.796875 C 1.367188 -3.734375 1.4375 -3.65625 1.4375 -3.5625 C 1.4375 -3.570312 1.296875 -3.328125 1.015625 -2.828125 C 0.734375 -2.328125 0.59375 -1.914062 0.59375 -1.59375 C 0.59375 -1.414062 0.632812 -1.25 0.71875 -1.09375 C 0.8125 -0.914062 0.941406 -0.828125 1.109375 -0.828125 C 1.335938 -0.828125 1.550781 -0.96875 1.75 -1.25 C 1.945312 -1.5 2.046875 -1.742188 2.046875 -1.984375 C 2.046875 -2.003906 2.035156 -2.039062 2.015625 -2.09375 C 2.003906 -2.15625 2 -2.203125 2 -2.234375 C 2 -2.335938 2.078125 -2.421875 2.234375 -2.484375 C 2.359375 -2.535156 2.484375 -2.5625 2.609375 -2.5625 C 2.878906 -2.5625 3.015625 -2.457031 3.015625 -2.25 C 3.015625 -1.957031 3.179688 -1.609375 3.515625 -1.203125 C 3.859375 -0.765625 4.1875 -0.546875 4.5 -0.546875 C 5.351562 -0.546875 5.957031 -0.957031 6.3125 -1.78125 C 6.382812 -1.957031 6.421875 -2.140625 6.421875 -2.328125 C 6.421875 -2.546875 6.375 -2.738281 6.28125 -2.90625 C 6.15625 -3.09375 5.992188 -3.1875 5.796875 -3.1875 C 5.703125 -3.1875 5.578125 -3.097656 5.421875 -2.921875 C 5.265625 -2.753906 5.128906 -2.671875 5.015625 -2.671875 C 4.867188 -2.671875 4.75 -2.726562 4.65625 -2.84375 C 4.550781 -2.957031 4.5 -3.085938 4.5 -3.234375 C 4.5 -3.398438 4.675781 -3.566406 5.03125 -3.734375 C 5.351562 -3.890625 5.613281 -3.96875 5.8125 -3.96875 C 6.25 -3.96875 6.582031 -3.804688 6.8125 -3.484375 C 7.007812 -3.203125 7.109375 -2.835938 7.109375 -2.390625 C 7.109375 -1.640625 6.882812 -1.023438 6.4375 -0.546875 C 5.96875 -0.046875 5.363281 0.203125 4.625 0.203125 C 4.207031 0.203125 3.820312 0.09375 3.46875 -0.125 C 3.207031 -0.28125 2.898438 -0.539062 2.546875 -0.90625 C 2.390625 -0.78125 2.148438 -0.597656 1.828125 -0.359375 C 1.523438 -0.160156 1.25 -0.0625 1 -0.0625 C 0.632812 -0.0625 0.351562 -0.234375 0.15625 -0.578125 C 0 -0.859375 -0.078125 -1.191406 -0.078125 -1.578125 C -0.078125 -1.960938 -0.015625 -2.351562 0.109375 -2.75 C 0.253906 -3.175781 0.445312 -3.519531 0.6875 -3.78125 C 0.738281 -3.84375 0.816406 -3.875 0.921875 -3.875 Z M 0.921875 -3.875 "/>
</g>
<g id="glyph-3-2">
<path d="M -2.109375 -9.1875 C -2.015625 -9.1875 -1.867188 -9.179688 -1.671875 -9.171875 C -1.484375 -9.171875 -1.34375 -9.171875 -1.25 -9.171875 C -0.15625 -9.171875 1.1875 -9.265625 2.78125 -9.453125 C 2.957031 -9.472656 3.429688 -9.5625 4.203125 -9.71875 C 4.828125 -9.84375 5.273438 -9.90625 5.546875 -9.90625 C 5.742188 -9.90625 5.84375 -9.753906 5.84375 -9.453125 C 5.84375 -9.242188 5.78125 -9.117188 5.65625 -9.078125 C 5.300781 -8.953125 4.519531 -8.804688 3.3125 -8.640625 C 3.300781 -8.628906 3.296875 -8.609375 3.296875 -8.578125 C 3.296875 -8.515625 3.332031 -8.179688 3.40625 -7.578125 L 3.59375 -5.921875 C 3.75 -4.523438 3.828125 -3.335938 3.828125 -2.359375 C 3.828125 -1.546875 3.769531 -0.992188 3.65625 -0.703125 C 3.59375 -0.523438 3.410156 -0.4375 3.109375 -0.4375 C 2.910156 -0.4375 2.8125 -0.488281 2.8125 -0.59375 L 2.828125 -0.625 C 2.941406 -1.457031 3 -2.113281 3 -2.59375 C 3 -3.675781 2.914062 -4.953125 2.75 -6.421875 L 2.640625 -7.484375 C 2.585938 -7.867188 2.523438 -8.222656 2.453125 -8.546875 L 0.203125 -8.390625 C -0.660156 -8.328125 -1.410156 -8.296875 -2.046875 -8.296875 C -2.203125 -8.296875 -2.300781 -8.328125 -2.34375 -8.390625 C -2.382812 -8.441406 -2.40625 -8.539062 -2.40625 -8.6875 C -2.40625 -9.019531 -2.304688 -9.1875 -2.109375 -9.1875 Z M -2.109375 -9.1875 "/>
</g>
<g id="glyph-3-3">
<path d="M 3.515625 -9.921875 C 3.640625 -9.921875 3.757812 -9.84375 3.875 -9.6875 C 3.988281 -9.539062 4.046875 -9.40625 4.046875 -9.28125 C 4.046875 -9.207031 4.007812 -9.15625 3.9375 -9.125 C 3.488281 -8.914062 3.21875 -8.785156 3.125 -8.734375 C 2.863281 -8.585938 2.617188 -8.40625 2.390625 -8.1875 C 1.898438 -7.726562 1.507812 -7.171875 1.21875 -6.515625 C 0.925781 -5.847656 0.78125 -5.1875 0.78125 -4.53125 C 0.78125 -3.507812 1.242188 -2.644531 2.171875 -1.9375 C 2.453125 -1.71875 2.976562 -1.40625 3.75 -1 C 3.863281 -0.945312 3.921875 -0.832031 3.921875 -0.65625 C 3.921875 -0.539062 3.898438 -0.429688 3.859375 -0.328125 C 3.796875 -0.191406 3.722656 -0.125 3.640625 -0.125 C 3.535156 -0.125 3.296875 -0.222656 2.921875 -0.421875 C 2.617188 -0.578125 2.378906 -0.710938 2.203125 -0.828125 C 1.535156 -1.285156 1.007812 -1.832031 0.625 -2.46875 C 0.207031 -3.15625 0 -3.882812 0 -4.65625 C 0 -5.46875 0.195312 -6.28125 0.59375 -7.09375 C 0.96875 -7.90625 1.472656 -8.578125 2.109375 -9.109375 C 2.265625 -9.242188 2.492188 -9.40625 2.796875 -9.59375 C 3.148438 -9.8125 3.390625 -9.921875 3.515625 -9.921875 Z M 3.515625 -9.921875 "/>
</g>
<g id="glyph-3-4">
<path d="M 1.875 -7.859375 C 2.09375 -7.859375 2.21875 -7.785156 2.25 -7.640625 C 2.257812 -7.546875 2.265625 -7.289062 2.265625 -6.875 C 2.265625 -6.40625 2.25 -5.703125 2.21875 -4.765625 C 2.195312 -3.828125 2.1875 -3.125 2.1875 -2.65625 C 2.1875 -2.019531 2.203125 -1.472656 2.234375 -1.015625 C 2.234375 -0.960938 2.25 -0.832031 2.28125 -0.625 C 2.300781 -0.457031 2.3125 -0.328125 2.3125 -0.234375 C 2.3125 -0.078125 2.171875 0 1.890625 0 C 1.660156 0 1.53125 -0.0664062 1.5 -0.203125 C 1.488281 -0.253906 1.472656 -0.625 1.453125 -1.3125 C 1.410156 -2.382812 1.390625 -3.421875 1.390625 -4.421875 C 1.390625 -6.378906 1.445312 -7.472656 1.5625 -7.703125 C 1.601562 -7.804688 1.707031 -7.859375 1.875 -7.859375 Z M 1.875 -7.859375 "/>
</g>
<g id="glyph-3-5">
<path d="M 1.5625 -0.5 C 1.5625 -0.632812 1.601562 -0.75 1.6875 -0.84375 C 1.78125 -0.945312 1.894531 -1 2.03125 -1 C 2.164062 -1 2.285156 -0.945312 2.390625 -0.84375 C 2.503906 -0.75 2.5625 -0.632812 2.5625 -0.5 C 2.5625 -0.363281 2.507812 -0.242188 2.40625 -0.140625 C 2.3125 -0.046875 2.195312 0 2.0625 0 C 1.925781 0 1.804688 -0.046875 1.703125 -0.140625 C 1.609375 -0.242188 1.5625 -0.363281 1.5625 -0.5 Z M 1.5625 -0.5 "/>
</g>
<g id="glyph-3-6">
<path d="M 0 -5.53125 C 0 -6.1875 0.300781 -6.648438 0.90625 -6.921875 C 1.664062 -7.285156 2.476562 -7.46875 3.34375 -7.46875 C 3.945312 -7.46875 4.488281 -7.335938 4.96875 -7.078125 C 5.5625 -6.773438 5.859375 -6.347656 5.859375 -5.796875 C 5.859375 -5.222656 5.503906 -4.53125 4.796875 -3.71875 C 4.441406 -3.320312 3.851562 -2.753906 3.03125 -2.015625 C 2.707031 -1.734375 2.351562 -1.390625 1.96875 -0.984375 C 2.125 -0.984375 2.535156 -0.984375 3.203125 -0.984375 C 3.921875 -0.972656 4.492188 -0.96875 4.921875 -0.96875 C 5.234375 -0.96875 5.59375 -0.953125 6 -0.921875 C 6.132812 -0.890625 6.203125 -0.769531 6.203125 -0.5625 C 6.203125 -0.28125 6.113281 -0.128906 5.9375 -0.109375 C 5.84375 -0.0976562 5.460938 -0.09375 4.796875 -0.09375 C 4.546875 -0.09375 3.859375 -0.0976562 2.734375 -0.109375 C 2.066406 -0.117188 1.46875 -0.144531 0.9375 -0.1875 C 0.789062 -0.1875 0.71875 -0.289062 0.71875 -0.5 C 0.71875 -0.6875 0.769531 -0.828125 0.875 -0.921875 C 1.425781 -1.441406 2.242188 -2.226562 3.328125 -3.28125 C 4.523438 -4.46875 5.125 -5.332031 5.125 -5.875 C 5.125 -6.4375 4.519531 -6.71875 3.3125 -6.71875 C 1.644531 -6.71875 0.8125 -6.335938 0.8125 -5.578125 C 0.8125 -5.484375 0.878906 -5.347656 1.015625 -5.171875 C 1.148438 -5.003906 1.21875 -4.894531 1.21875 -4.84375 C 1.21875 -4.757812 1.164062 -4.679688 1.0625 -4.609375 C 0.957031 -4.535156 0.863281 -4.5 0.78125 -4.5 C 0.726562 -4.5 0.59375 -4.601562 0.375 -4.8125 C 0.125 -5.050781 0 -5.289062 0 -5.53125 Z M 0 -5.53125 "/>
</g>
<g id="glyph-3-7">
<path d="M 4.25 -4.640625 C 4.25 -3.859375 4.046875 -3.125 3.640625 -2.4375 C 3.265625 -1.789062 2.738281 -1.238281 2.0625 -0.78125 C 1.882812 -0.65625 1.644531 -0.515625 1.34375 -0.359375 C 0.96875 -0.160156 0.726562 -0.0625 0.625 -0.0625 C 0.53125 -0.0625 0.457031 -0.128906 0.40625 -0.265625 C 0.363281 -0.359375 0.34375 -0.460938 0.34375 -0.578125 C 0.34375 -0.765625 0.394531 -0.882812 0.5 -0.9375 L 1.328125 -1.375 C 1.609375 -1.519531 1.867188 -1.691406 2.109375 -1.890625 C 3.003906 -2.617188 3.453125 -3.535156 3.453125 -4.640625 C 3.453125 -5.410156 3.296875 -6.117188 2.984375 -6.765625 C 2.648438 -7.453125 2.175781 -8.003906 1.5625 -8.421875 C 1.40625 -8.535156 0.988281 -8.742188 0.3125 -9.046875 C 0.238281 -9.078125 0.203125 -9.132812 0.203125 -9.21875 C 0.203125 -9.34375 0.257812 -9.476562 0.375 -9.625 C 0.5 -9.78125 0.625 -9.859375 0.75 -9.859375 C 0.769531 -9.859375 0.796875 -9.851562 0.828125 -9.84375 C 1.878906 -9.457031 2.71875 -8.769531 3.34375 -7.78125 C 3.945312 -6.84375 4.25 -5.796875 4.25 -4.640625 Z M 4.25 -4.640625 "/>
</g>
<g id="glyph-4-0">
<path d="M 7.1875 -3.453125 C 7.1875 -3.65625 7 -3.65625 6.859375 -3.65625 L 0.890625 -3.65625 C 0.75 -3.65625 0.5625 -3.65625 0.5625 -3.453125 C 0.5625 -3.265625 0.75 -3.265625 0.890625 -3.265625 L 6.84375 -3.265625 C 7 -3.265625 7.1875 -3.265625 7.1875 -3.453125 Z M 7.1875 -1.53125 C 7.1875 -1.71875 7 -1.71875 6.84375 -1.71875 L 0.890625 -1.71875 C 0.75 -1.71875 0.5625 -1.71875 0.5625 -1.53125 C 0.5625 -1.328125 0.75 -1.328125 0.890625 -1.328125 L 6.859375 -1.328125 C 7 -1.328125 7.1875 -1.328125 7.1875 -1.53125 Z M 7.1875 -1.53125 "/>
</g>
</g>
<clipPath id="clip-0">
<path clip-rule="nonzero" d="M 0 28 L 5 28 L 5 36.917969 L 0 36.917969 Z M 0 28 "/>
</clipPath>
<clipPath id="clip-1">
<path clip-rule="nonzero" d="M 213 10 L 248.695312 10 L 248.695312 21 L 213 21 Z M 213 10 "/>
</clipPath>
</defs>
<g fill="rgb(13.729858%, 12.159729%, 12.548828%)" fill-opacity="1">
<use xlink:href="#glyph-0-0" x="6.279" y="7.747"/>
</g>
<g fill="rgb(13.729858%, 12.159729%, 12.548828%)" fill-opacity="1">
<use xlink:href="#glyph-1-0" x="2.013" y="10.736"/>
</g>
<g clip-path="url(#clip-0)">
<g fill="rgb(13.729858%, 12.159729%, 12.548828%)" fill-opacity="1">
<use xlink:href="#glyph-0-1" x="1.966" y="32.857"/>
</g>
</g>
<g fill="rgb(13.729858%, 12.159729%, 12.548828%)" fill-opacity="1">
<use xlink:href="#glyph-2-0" x="5.034" y="32.857"/>
</g>
<g fill="rgb(13.729858%, 12.159729%, 12.548828%)" fill-opacity="1">
<use xlink:href="#glyph-0-2" x="11.15" y="32.857"/>
</g>
<g fill="rgb(13.729858%, 12.159729%, 12.548828%)" fill-opacity="1">
<use xlink:href="#glyph-3-0" x="18.111" y="20.201"/>
</g>
<g fill="rgb(13.729858%, 12.159729%, 12.548828%)" fill-opacity="1">
<use xlink:href="#glyph-0-3" x="26.519" y="21.695"/>
<use xlink:href="#glyph-0-1" x="28.61114" y="21.695"/>
</g>
<g fill="rgb(13.729858%, 12.159729%, 12.548828%)" fill-opacity="1">
<use xlink:href="#glyph-3-1" x="32.178" y="20.201"/>
</g>
<g fill="rgb(13.729858%, 12.159729%, 12.548828%)" fill-opacity="1">
<use xlink:href="#glyph-0-1" x="40.149" y="21.695"/>
</g>
<g fill="rgb(13.729858%, 12.159729%, 12.548828%)" fill-opacity="1">
<use xlink:href="#glyph-4-0" x="46.482" y="20.201"/>
</g>
<g fill="rgb(13.729858%, 12.159729%, 12.548828%)" fill-opacity="1">
<use xlink:href="#glyph-3-2" x="56.999" y="20.201"/>
</g>
<g fill="rgb(13.729858%, 12.159729%, 12.548828%)" fill-opacity="1">
<use xlink:href="#glyph-0-3" x="63.135" y="21.695"/>
</g>
<g clip-path="url(#clip-1)">
<g fill="rgb(13.729858%, 12.159729%, 12.548828%)" fill-opacity="1">
<use xlink:href="#glyph-3-3" x="213.941" y="20.201"/>
<use xlink:href="#glyph-3-4" x="218.9223" y="20.201"/>
<use xlink:href="#glyph-3-5" x="222.548686" y="20.201"/>
<use xlink:href="#glyph-3-4" x="226.533726" y="20.201"/>
<use xlink:href="#glyph-3-6" x="230.160113" y="20.201"/>
<use xlink:href="#glyph-3-6" x="237.293334" y="20.201"/>
<use xlink:href="#glyph-3-7" x="244.426556" y="20.201"/>
</g>
</g>
</svg>
