<?xml version="1.0" encoding="UTF-8"?>
<svg xmlns="http://www.w3.org/2000/svg" xmlns:xlink="http://www.w3.org/1999/xlink" width="351.022" height="290.098" viewBox="0 0 351.022 290.098">
<defs>
<g>
<g id="glyph-0-0">
<path d="M 3.671875 -1.71875 C 3.660156 -1.914062 3.640625 -2.296875 3.609375 -2.859375 C 3.578125 -3.335938 3.5625 -3.71875 3.5625 -4 C 3.5625 -4.175781 3.5625 -4.429688 3.5625 -4.765625 C 3.570312 -5.109375 3.578125 -5.367188 3.578125 -5.546875 C 3.578125 -6.242188 3.550781 -7.125 3.5 -8.1875 C 3.5 -8.300781 3.472656 -8.546875 3.421875 -8.921875 C 3.378906 -9.242188 3.359375 -9.476562 3.359375 -9.625 C 3.359375 -9.8125 3.519531 -9.90625 3.84375 -9.90625 C 4.113281 -9.90625 4.253906 -9.828125 4.265625 -9.671875 C 4.285156 -9.078125 4.316406 -8.015625 4.359375 -6.484375 L 4.453125 -3.828125 C 4.453125 -3.367188 4.476562 -2.546875 4.53125 -1.359375 C 4.53125 -1.203125 4.59375 -0.847656 4.71875 -0.296875 C 4.71875 -0.273438 4.71875 -0.257812 4.71875 -0.25 C 4.71875 -0.144531 4.640625 -0.0625 4.484375 0 C 4.367188 0.0390625 4.25 0.0625 4.125 0.0625 C 3.90625 0.0625 3.785156 0 3.765625 -0.125 C 3.710938 -0.414062 3.6875 -0.65625 3.6875 -0.84375 C 3.6875 -0.90625 3.695312 -0.953125 3.71875 -0.984375 C 3.738281 -0.972656 3.769531 -0.953125 3.8125 -0.921875 C 3.675781 -0.660156 3.363281 -0.441406 2.875 -0.265625 C 2.445312 -0.109375 2.054688 -0.03125 1.703125 -0.03125 C 1.160156 -0.03125 0.738281 -0.207031 0.4375 -0.5625 C 0.144531 -0.894531 0 -1.335938 0 -1.890625 C 0 -2.273438 0.0820312 -2.625 0.25 -2.9375 C 0.4375 -3.28125 0.695312 -3.519531 1.03125 -3.65625 C 1.40625 -3.8125 1.738281 -3.890625 2.03125 -3.890625 C 2.21875 -3.890625 2.582031 -3.820312 3.125 -3.6875 C 3.332031 -3.632812 3.4375 -3.4375 3.4375 -3.09375 C 3.4375 -2.90625 3.367188 -2.8125 3.234375 -2.8125 C 3.097656 -2.8125 2.894531 -2.84375 2.625 -2.90625 C 2.351562 -2.976562 2.144531 -3.015625 2 -3.015625 C 1.257812 -3.015625 0.890625 -2.644531 0.890625 -1.90625 C 0.890625 -1.257812 1.226562 -0.9375 1.90625 -0.9375 C 2.21875 -0.9375 2.535156 -1.007812 2.859375 -1.15625 C 3.191406 -1.300781 3.460938 -1.488281 3.671875 -1.71875 Z M 3.671875 -1.71875 "/>
</g>
<g id="glyph-0-1">
<path d="M 5.265625 -0.03125 C 5.046875 -0.03125 4.753906 -0.046875 4.390625 -0.078125 C 3.972656 -0.117188 3.6875 -0.144531 3.53125 -0.15625 C 3.394531 -0.15625 2.285156 -0.21875 0.203125 -0.34375 C 0.304688 -1.675781 0.359375 -2.867188 0.359375 -3.921875 C 0.359375 -5.859375 0.238281 -7.789062 0 -9.71875 C 0.757812 -9.789062 1.535156 -9.828125 2.328125 -9.828125 C 3.398438 -9.828125 4.132812 -9.816406 4.53125 -9.796875 C 5.363281 -9.742188 6.097656 -9.632812 6.734375 -9.46875 C 6.898438 -9.425781 6.984375 -9.316406 6.984375 -9.140625 C 6.984375 -9.023438 6.945312 -8.910156 6.875 -8.796875 C 6.800781 -8.660156 6.710938 -8.59375 6.609375 -8.59375 L 6.5625 -8.59375 C 5.5625 -8.800781 4.4375 -8.90625 3.1875 -8.90625 C 3.144531 -8.90625 2.726562 -8.894531 1.9375 -8.875 C 1.289062 -8.863281 0.941406 -8.863281 0.890625 -8.875 L 1.203125 -4.890625 C 1.265625 -4.910156 1.359375 -4.921875 1.484375 -4.921875 C 1.984375 -4.921875 2.722656 -4.890625 3.703125 -4.828125 C 4.691406 -4.765625 5.4375 -4.734375 5.9375 -4.734375 C 6.0625 -4.734375 6.125 -4.628906 6.125 -4.421875 C 6.125 -4.078125 6.019531 -3.894531 5.8125 -3.875 C 5.726562 -3.851562 5.429688 -3.84375 4.921875 -3.84375 C 3.742188 -3.84375 2.710938 -3.875 1.828125 -3.9375 C 1.617188 -3.957031 1.410156 -3.988281 1.203125 -4.03125 L 1.09375 -1.203125 C 1.125 -1.203125 1.164062 -1.203125 1.21875 -1.203125 C 1.5625 -1.203125 2.273438 -1.160156 3.359375 -1.078125 C 3.460938 -1.066406 4.066406 -1.007812 5.171875 -0.90625 C 5.304688 -0.894531 5.539062 -0.867188 5.875 -0.828125 C 6 -0.804688 6.0625 -0.703125 6.0625 -0.515625 C 6.0625 -0.273438 5.976562 -0.125 5.8125 -0.0625 C 5.75 -0.0390625 5.566406 -0.03125 5.265625 -0.03125 Z M 5.265625 -0.03125 "/>
</g>
<g id="glyph-0-2">
<path d="M 0.921875 -3.875 C 1.023438 -3.875 1.128906 -3.847656 1.234375 -3.796875 C 1.367188 -3.734375 1.4375 -3.65625 1.4375 -3.5625 C 1.4375 -3.570312 1.296875 -3.328125 1.015625 -2.828125 C 0.734375 -2.328125 0.59375 -1.914062 0.59375 -1.59375 C 0.59375 -1.414062 0.632812 -1.25 0.71875 -1.09375 C 0.8125 -0.914062 0.941406 -0.828125 1.109375 -0.828125 C 1.335938 -0.828125 1.550781 -0.96875 1.75 -1.25 C 1.945312 -1.5 2.046875 -1.742188 2.046875 -1.984375 C 2.046875 -2.003906 2.035156 -2.039062 2.015625 -2.09375 C 2.003906 -2.15625 2 -2.203125 2 -2.234375 C 2 -2.335938 2.078125 -2.421875 2.234375 -2.484375 C 2.359375 -2.535156 2.484375 -2.5625 2.609375 -2.5625 C 2.878906 -2.5625 3.015625 -2.457031 3.015625 -2.25 C 3.015625 -1.957031 3.179688 -1.609375 3.515625 -1.203125 C 3.859375 -0.765625 4.1875 -0.546875 4.5 -0.546875 C 5.351562 -0.546875 5.957031 -0.957031 6.3125 -1.78125 C 6.382812 -1.957031 6.421875 -2.140625 6.421875 -2.328125 C 6.421875 -2.546875 6.375 -2.738281 6.28125 -2.90625 C 6.15625 -3.09375 5.992188 -3.1875 5.796875 -3.1875 C 5.703125 -3.1875 5.578125 -3.097656 5.421875 -2.921875 C 5.265625 -2.753906 5.128906 -2.671875 5.015625 -2.671875 C 4.867188 -2.671875 4.75 -2.726562 4.65625 -2.84375 C 4.550781 -2.957031 4.5 -3.085938 4.5 -3.234375 C 4.5 -3.398438 4.675781 -3.566406 5.03125 -3.734375 C 5.351562 -3.890625 5.613281 -3.96875 5.8125 -3.96875 C 6.25 -3.96875 6.582031 -3.804688 6.8125 -3.484375 C 7.007812 -3.203125 7.109375 -2.835938 7.109375 -2.390625 C 7.109375 -1.640625 6.882812 -1.023438 6.4375 -0.546875 C 5.96875 -0.046875 5.363281 0.203125 4.625 0.203125 C 4.207031 0.203125 3.820312 0.09375 3.46875 -0.125 C 3.207031 -0.28125 2.898438 -0.539062 2.546875 -0.90625 C 2.390625 -0.78125 2.148438 -0.597656 1.828125 -0.359375 C 1.523438 -0.160156 1.25 -0.0625 1 -0.0625 C 0.632812 -0.0625 0.351562 -0.234375 0.15625 -0.578125 C 0 -0.859375 -0.078125 -1.191406 -0.078125 -1.578125 C -0.078125 -1.960938 -0.015625 -2.351562 0.109375 -2.75 C 0.253906 -3.175781 0.445312 -3.519531 0.6875 -3.78125 C 0.738281 -3.84375 0.816406 -3.875 0.921875 -3.875 Z M 0.921875 -3.875 "/>
</g>
<g id="glyph-0-3">
<path d="M 0.34375 -3.15625 C 0.34375 -3.257812 0.398438 -3.359375 0.515625 -3.453125 C 0.628906 -3.554688 0.738281 -3.609375 0.84375 -3.609375 C 0.914062 -3.609375 1.082031 -3.457031 1.34375 -3.15625 L 1.84375 -2.578125 C 1.925781 -2.578125 2.09375 -2.71875 2.34375 -3 C 2.59375 -3.269531 2.742188 -3.46875 2.796875 -3.59375 C 2.910156 -3.84375 3.054688 -3.96875 3.234375 -3.96875 C 3.378906 -3.96875 3.515625 -3.890625 3.640625 -3.734375 C 3.765625 -3.578125 3.828125 -3.425781 3.828125 -3.28125 C 3.828125 -3.207031 3.800781 -3.148438 3.75 -3.109375 L 2.984375 -2.5 C 2.566406 -2.15625 2.359375 -1.957031 2.359375 -1.90625 C 3.347656 -0.851562 3.84375 -0.257812 3.84375 -0.125 C 3.84375 -0.0195312 3.769531 0.0703125 3.625 0.15625 C 3.5 0.226562 3.378906 0.265625 3.265625 0.265625 C 3.179688 0.265625 3.117188 0.238281 3.078125 0.1875 C 2.773438 -0.175781 2.535156 -0.46875 2.359375 -0.6875 C 1.953125 -1.164062 1.710938 -1.40625 1.640625 -1.40625 C 0.878906 -0.601562 0.445312 -0.203125 0.34375 -0.203125 C 0.238281 -0.203125 0.132812 -0.257812 0.03125 -0.375 C -0.0703125 -0.488281 -0.125 -0.59375 -0.125 -0.6875 C -0.125 -0.738281 -0.109375 -0.78125 -0.078125 -0.8125 C 0.222656 -1.082031 0.644531 -1.488281 1.1875 -2.03125 C 1.164062 -2.0625 1.007812 -2.257812 0.71875 -2.625 C 0.46875 -2.925781 0.34375 -3.101562 0.34375 -3.15625 Z M 0.34375 -3.15625 "/>
</g>
<g id="glyph-0-4">
<path d="M 3.984375 -4.578125 C 4.046875 -4.578125 4.078125 -4.53125 4.078125 -4.4375 C 4.078125 -4.34375 4.050781 -4.234375 4 -4.109375 C 3.90625 -3.859375 3.738281 -3.6875 3.5 -3.59375 C 3.394531 -3.550781 3.148438 -3.492188 2.765625 -3.421875 C 2.429688 -3.367188 2.125 -3.351562 1.84375 -3.375 C 1.863281 -3.09375 1.875 -2.835938 1.875 -2.609375 C 1.875 -1.785156 1.757812 -0.988281 1.53125 -0.21875 C 1.488281 -0.113281 1.378906 -0.0625 1.203125 -0.0625 C 1.097656 -0.0625 0.992188 -0.0820312 0.890625 -0.125 C 0.742188 -0.175781 0.671875 -0.25 0.671875 -0.34375 C 0.671875 -0.363281 0.710938 -0.484375 0.796875 -0.703125 C 0.878906 -0.953125 0.925781 -1.097656 0.9375 -1.140625 C 1.039062 -1.535156 1.09375 -2.007812 1.09375 -2.5625 C 1.09375 -2.800781 1.078125 -3.046875 1.046875 -3.296875 C 1.023438 -3.304688 1 -3.3125 0.96875 -3.3125 C 0.800781 -3.3125 0.617188 -3.289062 0.421875 -3.25 C 0.328125 -3.226562 0.28125 -3.164062 0.28125 -3.0625 C 0.28125 -3.03125 0.285156 -2.972656 0.296875 -2.890625 C 0.304688 -2.816406 0.3125 -2.765625 0.3125 -2.734375 C 0.3125 -2.648438 0.253906 -2.609375 0.140625 -2.609375 C -0.078125 -2.609375 -0.210938 -2.679688 -0.265625 -2.828125 C -0.304688 -2.910156 -0.328125 -3.078125 -0.328125 -3.328125 C -0.328125 -3.671875 -0.1875 -3.890625 0.09375 -3.984375 C 0.132812 -3.992188 0.425781 -4.019531 0.96875 -4.0625 C 0.882812 -5.46875 0.707031 -6.722656 0.4375 -7.828125 C 0.375 -8.066406 0.285156 -8.414062 0.171875 -8.875 C 0.0234375 -9.414062 -0.046875 -9.722656 -0.046875 -9.796875 C -0.046875 -9.960938 0.113281 -10.046875 0.4375 -10.046875 C 0.695312 -10.046875 0.847656 -9.96875 0.890625 -9.8125 C 1.328125 -7.894531 1.617188 -6.019531 1.765625 -4.1875 L 2 -4.1875 C 2.375 -4.175781 2.707031 -4.210938 3 -4.296875 C 3.207031 -4.359375 3.519531 -4.445312 3.9375 -4.5625 C 3.957031 -4.570312 3.972656 -4.578125 3.984375 -4.578125 Z M 3.984375 -4.578125 "/>
</g>
<g id="glyph-0-5">
<path d="M 1.59375 -0.125 C 1.59375 -0.0195312 1.523438 0.0625 1.390625 0.125 C 1.285156 0.175781 1.171875 0.203125 1.046875 0.203125 C 0.867188 0.203125 0.765625 0.140625 0.734375 0.015625 C 0.703125 -0.117188 0.679688 -0.289062 0.671875 -0.5 C 0.671875 -0.625 0.675781 -0.8125 0.6875 -1.0625 C 0.695312 -1.320312 0.695312 -1.5 0.6875 -1.59375 C 0.675781 -2.664062 0.632812 -3.503906 0.5625 -4.109375 C 0.53125 -4.367188 0.421875 -4.898438 0.234375 -5.703125 C 0.078125 -6.359375 0 -6.894531 0 -7.3125 C 0 -7.832031 0.226562 -8.382812 0.6875 -8.96875 C 1.164062 -9.570312 1.660156 -9.90625 2.171875 -9.96875 C 2.304688 -9.988281 2.453125 -10 2.609375 -10 C 3.640625 -10 4.539062 -9.628906 5.3125 -8.890625 C 5.988281 -8.253906 6.507812 -7.410156 6.875 -6.359375 C 7.289062 -5.191406 7.5 -3.441406 7.5 -1.109375 C 7.5 -0.753906 7.492188 -0.554688 7.484375 -0.515625 C 7.441406 -0.316406 7.300781 -0.21875 7.0625 -0.21875 C 6.789062 -0.21875 6.65625 -0.351562 6.65625 -0.625 C 6.65625 -0.675781 6.65625 -0.75 6.65625 -0.84375 C 6.664062 -0.945312 6.671875 -1.023438 6.671875 -1.078125 C 6.671875 -1.210938 6.664062 -1.421875 6.65625 -1.703125 C 6.65625 -1.984375 6.65625 -2.191406 6.65625 -2.328125 C 6.65625 -2.597656 6.644531 -2.75 6.625 -2.78125 C 6.601562 -2.820312 6.472656 -2.847656 6.234375 -2.859375 C 5.503906 -2.890625 4.195312 -2.953125 2.3125 -3.046875 C 2.070312 -3.066406 1.863281 -3.082031 1.6875 -3.09375 C 1.550781 -3.101562 1.492188 -3.109375 1.515625 -3.109375 C 1.472656 -3.109375 1.453125 -2.976562 1.453125 -2.71875 C 1.453125 -2.425781 1.472656 -1.992188 1.515625 -1.421875 C 1.566406 -0.847656 1.59375 -0.414062 1.59375 -0.125 Z M 6.5625 -3.6875 C 6.582031 -3.726562 6.59375 -3.789062 6.59375 -3.875 C 6.59375 -4.457031 6.476562 -5.109375 6.25 -5.828125 C 6.007812 -6.609375 5.71875 -7.195312 5.375 -7.59375 C 4.445312 -8.644531 3.5625 -9.171875 2.71875 -9.171875 C 2.570312 -9.171875 2.4375 -9.15625 2.3125 -9.125 C 1.957031 -9.0625 1.617188 -8.828125 1.296875 -8.421875 C 0.984375 -8.023438 0.828125 -7.644531 0.828125 -7.28125 C 0.828125 -7.113281 0.90625 -6.566406 1.0625 -5.640625 C 1.226562 -4.734375 1.335938 -4.175781 1.390625 -3.96875 C 1.460938 -3.957031 2.109375 -3.921875 3.328125 -3.859375 Z M 6.5625 -3.6875 "/>
</g>
<g id="glyph-0-6">
<path d="M -2.109375 -9.1875 C -2.015625 -9.1875 -1.867188 -9.179688 -1.671875 -9.171875 C -1.484375 -9.171875 -1.34375 -9.171875 -1.25 -9.171875 C -0.15625 -9.171875 1.1875 -9.265625 2.78125 -9.453125 C 2.957031 -9.472656 3.429688 -9.5625 4.203125 -9.71875 C 4.828125 -9.84375 5.273438 -9.90625 5.546875 -9.90625 C 5.742188 -9.90625 5.84375 -9.753906 5.84375 -9.453125 C 5.84375 -9.242188 5.78125 -9.117188 5.65625 -9.078125 C 5.300781 -8.953125 4.519531 -8.804688 3.3125 -8.640625 C 3.300781 -8.628906 3.296875 -8.609375 3.296875 -8.578125 C 3.296875 -8.515625 3.332031 -8.179688 3.40625 -7.578125 L 3.59375 -5.921875 C 3.75 -4.523438 3.828125 -3.335938 3.828125 -2.359375 C 3.828125 -1.546875 3.769531 -0.992188 3.65625 -0.703125 C 3.59375 -0.523438 3.410156 -0.4375 3.109375 -0.4375 C 2.910156 -0.4375 2.8125 -0.488281 2.8125 -0.59375 L 2.828125 -0.625 C 2.941406 -1.457031 3 -2.113281 3 -2.59375 C 3 -3.675781 2.914062 -4.953125 2.75 -6.421875 L 2.640625 -7.484375 C 2.585938 -7.867188 2.523438 -8.222656 2.453125 -8.546875 L 0.203125 -8.390625 C -0.660156 -8.328125 -1.410156 -8.296875 -2.046875 -8.296875 C -2.203125 -8.296875 -2.300781 -8.328125 -2.34375 -8.390625 C -2.382812 -8.441406 -2.40625 -8.539062 -2.40625 -8.6875 C -2.40625 -9.019531 -2.304688 -9.1875 -2.109375 -9.1875 Z M -2.109375 -9.1875 "/>
</g>
<g id="glyph-0-7">
<path d="M 1.234375 -3 C 1.234375 -2.925781 1.238281 -2.816406 1.25 -2.671875 C 1.257812 -2.523438 1.265625 -2.414062 1.265625 -2.34375 C 1.265625 -1.351562 1.175781 -0.5625 1 0.03125 C 0.945312 0.195312 0.796875 0.28125 0.546875 0.28125 C 0.285156 0.28125 0.125 0.203125 0.0625 0.046875 C 0.0195312 -0.0351562 0 -0.226562 0 -0.53125 C 0 -1.082031 0.0664062 -1.726562 0.203125 -2.46875 C 0.285156 -2.925781 0.328125 -3.144531 0.328125 -3.125 C 0.328125 -3.21875 0.304688 -3.515625 0.265625 -4.015625 C 0.179688 -4.972656 0.0625 -5.898438 -0.09375 -6.796875 C -0.15625 -7.191406 -0.210938 -7.488281 -0.265625 -7.6875 C -0.273438 -7.726562 -0.375 -8.109375 -0.5625 -8.828125 C -0.726562 -9.421875 -0.8125 -9.757812 -0.8125 -9.84375 C -0.8125 -9.945312 -0.734375 -10.035156 -0.578125 -10.109375 C -0.453125 -10.160156 -0.328125 -10.1875 -0.203125 -10.1875 C 0.015625 -10.1875 0.144531 -10.117188 0.1875 -9.984375 C 0.332031 -9.398438 0.457031 -8.734375 0.5625 -7.984375 C 0.625 -7.546875 0.710938 -6.878906 0.828125 -5.984375 L 1.046875 -4.46875 C 1.066406 -4.320312 1.082031 -4.160156 1.09375 -3.984375 C 1.34375 -4.222656 1.742188 -4.34375 2.296875 -4.34375 C 2.796875 -4.34375 3.203125 -4.203125 3.515625 -3.921875 C 3.773438 -3.691406 4.007812 -3.316406 4.21875 -2.796875 C 4.425781 -2.285156 4.53125 -1.820312 4.53125 -1.40625 C 4.53125 -1 4.457031 -0.519531 4.3125 0.03125 C 4.28125 0.132812 4.191406 0.1875 4.046875 0.1875 C 3.929688 0.1875 3.828125 0.160156 3.734375 0.109375 C 3.609375 0.0351562 3.546875 -0.046875 3.546875 -0.140625 C 3.546875 -0.242188 3.566406 -0.410156 3.609375 -0.640625 C 3.648438 -0.867188 3.671875 -1.039062 3.671875 -1.15625 C 3.671875 -1.976562 3.40625 -2.679688 2.875 -3.265625 C 2.738281 -3.421875 2.519531 -3.5 2.21875 -3.5 C 1.75 -3.5 1.421875 -3.332031 1.234375 -3 Z M 1.234375 -3 "/>
</g>
<g id="glyph-0-8">
<path d="M 0.765625 -2.515625 C 1.398438 -2.566406 1.820312 -2.613281 2.03125 -2.65625 C 2.707031 -2.789062 3.046875 -2.988281 3.046875 -3.25 C 3.046875 -3.53125 2.8125 -3.671875 2.34375 -3.671875 C 1.914062 -3.671875 1.578125 -3.582031 1.328125 -3.40625 C 1.085938 -3.226562 0.898438 -2.929688 0.765625 -2.515625 Z M 3.6875 -1.578125 C 3.832031 -1.578125 3.90625 -1.453125 3.90625 -1.203125 C 3.90625 -0.992188 3.851562 -0.851562 3.75 -0.78125 C 3.382812 -0.5 2.914062 -0.359375 2.34375 -0.359375 C 1.726562 -0.359375 1.195312 -0.53125 0.75 -0.875 C 0.25 -1.25 0 -1.734375 0 -2.328125 C 0 -2.960938 0.222656 -3.472656 0.671875 -3.859375 C 1.097656 -4.222656 1.632812 -4.40625 2.28125 -4.40625 C 2.675781 -4.40625 3.019531 -4.316406 3.3125 -4.140625 C 3.644531 -3.929688 3.8125 -3.640625 3.8125 -3.265625 C 3.8125 -2.953125 3.660156 -2.691406 3.359375 -2.484375 C 2.960938 -2.203125 2.578125 -2.023438 2.203125 -1.953125 C 2.046875 -1.921875 1.617188 -1.890625 0.921875 -1.859375 L 1.015625 -1.640625 C 1.085938 -1.472656 1.285156 -1.347656 1.609375 -1.265625 C 1.847656 -1.191406 2.097656 -1.15625 2.359375 -1.15625 C 2.578125 -1.15625 2.84375 -1.222656 3.15625 -1.359375 C 3.46875 -1.503906 3.644531 -1.578125 3.6875 -1.578125 Z M 3.6875 -1.578125 "/>
</g>
<g id="glyph-0-9">
<path d="M 0 -3.890625 C 0 -4.023438 0.113281 -4.09375 0.34375 -4.09375 C 0.65625 -4.09375 0.832031 -4.023438 0.875 -3.890625 C 0.875 -3.859375 0.878906 -3.773438 0.890625 -3.640625 C 0.898438 -3.515625 0.921875 -3.453125 0.953125 -3.453125 L 0.984375 -3.453125 L 1.75 -3.828125 C 2.039062 -3.972656 2.316406 -4.046875 2.578125 -4.046875 C 3.253906 -4.046875 3.710938 -3.78125 3.953125 -3.25 C 4.003906 -3.125 4.03125 -3.023438 4.03125 -2.953125 C 4.03125 -2.898438 4.015625 -2.875 3.984375 -2.875 C 3.984375 -2.875 3.847656 -2.929688 3.578125 -3.046875 C 3.304688 -3.171875 3.082031 -3.234375 2.90625 -3.234375 C 2.445312 -3.234375 2.050781 -3.164062 1.71875 -3.03125 C 1.269531 -2.832031 1.046875 -2.539062 1.046875 -2.15625 C 1.046875 -2.09375 1.050781 -1.992188 1.0625 -1.859375 C 1.070312 -1.734375 1.078125 -1.640625 1.078125 -1.578125 C 1.078125 -1.492188 1.082031 -1.363281 1.09375 -1.1875 C 1.101562 -1.007812 1.109375 -0.875 1.109375 -0.78125 C 1.109375 -0.28125 0.945312 -0.03125 0.625 -0.03125 C 0.457031 -0.03125 0.316406 -0.0820312 0.203125 -0.1875 C 0.0664062 -0.300781 0 -0.4375 0 -0.59375 C 0 -0.644531 0.046875 -0.71875 0.140625 -0.8125 C 0.242188 -0.90625 0.300781 -0.984375 0.3125 -1.046875 C 0.332031 -1.253906 0.34375 -1.488281 0.34375 -1.75 C 0.34375 -2.070312 0.316406 -2.382812 0.265625 -2.6875 C 0.253906 -2.75 0.203125 -2.960938 0.109375 -3.328125 C 0.0351562 -3.640625 0 -3.828125 0 -3.890625 Z M 0 -3.890625 "/>
</g>
<g id="glyph-0-10">
<path d="M 0 -1.984375 C 0 -2.515625 0.234375 -2.957031 0.703125 -3.3125 C 1.140625 -3.632812 1.632812 -3.796875 2.1875 -3.796875 C 2.632812 -3.796875 3.03125 -3.6875 3.375 -3.46875 C 3.726562 -3.226562 3.96875 -2.898438 4.09375 -2.484375 C 4.269531 -1.890625 4.441406 -1.378906 4.609375 -0.953125 C 4.910156 -0.191406 5.0625 0.179688 5.0625 0.171875 C 5.0625 0.265625 4.992188 0.359375 4.859375 0.453125 C 4.734375 0.523438 4.617188 0.5625 4.515625 0.5625 C 4.429688 0.5625 4.375 0.523438 4.34375 0.453125 C 3.925781 -0.453125 3.726562 -0.929688 3.75 -0.984375 C 3.726562 -0.921875 3.613281 -0.773438 3.40625 -0.546875 C 2.851562 0.0859375 2.332031 0.40625 1.84375 0.40625 C 1.269531 0.40625 0.8125 0.144531 0.46875 -0.375 C 0.15625 -0.84375 0 -1.378906 0 -1.984375 Z M 1.671875 -0.359375 C 1.734375 -0.359375 1.796875 -0.367188 1.859375 -0.390625 C 2.347656 -0.515625 2.679688 -0.71875 2.859375 -1 C 2.960938 -1.164062 3.078125 -1.546875 3.203125 -2.140625 C 3.210938 -2.179688 3.296875 -2.3125 3.453125 -2.53125 C 3.359375 -2.644531 3.148438 -2.753906 2.828125 -2.859375 C 2.523438 -2.960938 2.289062 -3.015625 2.125 -3.015625 C 1.832031 -3.015625 1.546875 -2.921875 1.265625 -2.734375 C 0.953125 -2.523438 0.796875 -2.285156 0.796875 -2.015625 C 0.796875 -1.671875 0.863281 -1.332031 1 -1 C 1.164062 -0.570312 1.390625 -0.359375 1.671875 -0.359375 Z M 1.671875 -0.359375 "/>
</g>
<g id="glyph-0-11">
<path d="M 0.90625 -3.40625 C 1.476562 -3.8125 1.941406 -4.015625 2.296875 -4.015625 C 2.910156 -4.015625 3.40625 -3.734375 3.78125 -3.171875 C 4.101562 -2.679688 4.265625 -2.113281 4.265625 -1.46875 C 4.265625 -1.03125 4.164062 -0.515625 3.96875 0.078125 C 3.925781 0.222656 3.773438 0.296875 3.515625 0.296875 C 3.273438 0.296875 3.15625 0.222656 3.15625 0.078125 C 3.15625 -0.078125 3.203125 -0.328125 3.296875 -0.671875 C 3.398438 -1.023438 3.453125 -1.296875 3.453125 -1.484375 C 3.453125 -1.972656 3.351562 -2.367188 3.15625 -2.671875 C 2.914062 -3.023438 2.5625 -3.203125 2.09375 -3.203125 C 1.664062 -3.203125 1.300781 -3.003906 1 -2.609375 L 1 -2.578125 C 1 -2.453125 1.015625 -2.269531 1.046875 -2.03125 C 1.078125 -1.800781 1.09375 -1.628906 1.09375 -1.515625 C 1.09375 -0.992188 1.015625 -0.566406 0.859375 -0.234375 C 0.796875 -0.109375 0.671875 -0.046875 0.484375 -0.046875 C 0.128906 -0.046875 -0.046875 -0.5 -0.046875 -1.40625 C -0.046875 -1.5625 -0.015625 -1.800781 0.046875 -2.125 C 0.109375 -2.457031 0.140625 -2.6875 0.140625 -2.8125 C 0.140625 -2.882812 0.0859375 -3.007812 -0.015625 -3.1875 C -0.117188 -3.375 -0.171875 -3.5 -0.171875 -3.5625 C -0.171875 -3.6875 -0.0976562 -3.796875 0.046875 -3.890625 C 0.160156 -3.972656 0.285156 -4.015625 0.421875 -4.015625 C 0.597656 -4.015625 0.71875 -3.945312 0.78125 -3.8125 Z M 0.90625 -3.40625 "/>
</g>
<g id="glyph-1-0">
<path d="M 3.296875 2.390625 C 3.296875 2.359375 3.296875 2.34375 3.125 2.171875 C 1.890625 0.921875 1.5625 -0.96875 1.5625 -2.5 C 1.5625 -4.234375 1.9375 -5.96875 3.171875 -7.203125 C 3.296875 -7.328125 3.296875 -7.34375 3.296875 -7.375 C 3.296875 -7.453125 3.265625 -7.484375 3.203125 -7.484375 C 3.09375 -7.484375 2.203125 -6.796875 1.609375 -5.53125 C 1.109375 -4.4375 0.984375 -3.328125 0.984375 -2.5 C 0.984375 -1.71875 1.09375 -0.515625 1.640625 0.625 C 2.25 1.84375 3.09375 2.5 3.203125 2.5 C 3.265625 2.5 3.296875 2.46875 3.296875 2.390625 Z M 3.296875 2.390625 "/>
</g>
<g id="glyph-1-1">
<path d="M 2.875 -2.5 C 2.875 -3.265625 2.765625 -4.46875 2.21875 -5.609375 C 1.625 -6.828125 0.765625 -7.484375 0.671875 -7.484375 C 0.609375 -7.484375 0.5625 -7.4375 0.5625 -7.375 C 0.5625 -7.34375 0.5625 -7.328125 0.75 -7.140625 C 1.734375 -6.15625 2.296875 -4.578125 2.296875 -2.5 C 2.296875 -0.78125 1.9375 0.96875 0.703125 2.21875 C 0.5625 2.34375 0.5625 2.359375 0.5625 2.390625 C 0.5625 2.453125 0.609375 2.5 0.671875 2.5 C 0.765625 2.5 1.671875 1.8125 2.25 0.546875 C 2.765625 -0.546875 2.875 -1.65625 2.875 -2.5 Z M 2.875 -2.5 "/>
</g>
<g id="glyph-1-2">
<path d="M 7.1875 -3.453125 C 7.1875 -3.65625 7 -3.65625 6.859375 -3.65625 L 0.890625 -3.65625 C 0.75 -3.65625 0.5625 -3.65625 0.5625 -3.453125 C 0.5625 -3.265625 0.75 -3.265625 0.890625 -3.265625 L 6.84375 -3.265625 C 7 -3.265625 7.1875 -3.265625 7.1875 -3.453125 Z M 7.1875 -1.53125 C 7.1875 -1.71875 7 -1.71875 6.84375 -1.71875 L 0.890625 -1.71875 C 0.75 -1.71875 0.5625 -1.71875 0.5625 -1.53125 C 0.5625 -1.328125 0.75 -1.328125 0.890625 -1.328125 L 6.859375 -1.328125 C 7 -1.328125 7.1875 -1.328125 7.1875 -1.53125 Z M 7.1875 -1.53125 "/>
</g>
<g id="glyph-1-3">
<path d="M 7.1875 -2.5 C 7.1875 -2.6875 7 -2.6875 6.859375 -2.6875 L 4.078125 -2.6875 L 4.078125 -5.484375 C 4.078125 -5.625 4.078125 -5.8125 3.875 -5.8125 C 3.671875 -5.8125 3.671875 -5.625 3.671875 -5.484375 L 3.671875 -2.6875 L 0.890625 -2.6875 C 0.75 -2.6875 0.5625 -2.6875 0.5625 -2.5 C 0.5625 -2.296875 0.75 -2.296875 0.890625 -2.296875 L 3.671875 -2.296875 L 3.671875 0.5 C 3.671875 0.640625 3.671875 0.828125 3.875 0.828125 C 4.078125 0.828125 4.078125 0.640625 4.078125 0.5 L 4.078125 -2.296875 L 6.859375 -2.296875 C 7 -2.296875 7.1875 -2.296875 7.1875 -2.5 Z M 7.1875 -2.5 "/>
</g>
<g id="glyph-2-0">
<path d="M 6.234375 -6.125 C 6.234375 -6.234375 6.15625 -6.28125 6.09375 -6.328125 C 5.875 -6.484375 5.765625 -6.65625 5.6875 -6.890625 C 5.65625 -6.984375 5.625 -7.125 5.484375 -7.125 C 5.34375 -7.125 5.28125 -6.984375 5.28125 -6.90625 C 5.28125 -6.859375 5.359375 -6.546875 5.515625 -6.328125 L 2.15625 -6.328125 C 2 -6.328125 1.8125 -6.328125 1.8125 -6.125 C 1.8125 -5.9375 2 -5.9375 2.15625 -5.9375 L 5.359375 -5.9375 C 5.21875 -5.796875 4.890625 -5.515625 4.890625 -5.34375 C 4.890625 -5.25 4.984375 -5.140625 5.078125 -5.140625 C 5.171875 -5.140625 5.21875 -5.21875 5.28125 -5.28125 C 5.390625 -5.421875 5.625 -5.703125 6.0625 -5.921875 C 6.125 -5.96875 6.234375 -6.015625 6.234375 -6.125 Z M 6.234375 -6.125 "/>
</g>
<g id="glyph-2-1">
<path d="M 1.90625 -0.53125 C 1.90625 -0.8125 1.671875 -1.0625 1.390625 -1.0625 C 1.09375 -1.0625 0.859375 -0.8125 0.859375 -0.53125 C 0.859375 -0.234375 1.09375 0 1.390625 0 C 1.671875 0 1.90625 -0.234375 1.90625 -0.53125 Z M 1.90625 -0.53125 "/>
</g>
<g id="glyph-3-0">
<path d="M 0.375 -2.734375 C 0.375 -2.835938 0.441406 -2.890625 0.578125 -2.890625 C 0.960938 -2.890625 1.15625 -2.644531 1.15625 -2.15625 C 1.15625 -2.03125 1.164062 -1.84375 1.1875 -1.59375 C 1.21875 -1.351562 1.234375 -1.171875 1.234375 -1.046875 C 1.234375 -0.722656 1.222656 -0.429688 1.203125 -0.171875 C 1.191406 -0.046875 1.082031 0.015625 0.875 0.015625 C 0.65625 0.015625 0.546875 -0.046875 0.546875 -0.171875 C 0.546875 -0.234375 0.546875 -0.328125 0.546875 -0.453125 C 0.554688 -0.585938 0.5625 -0.691406 0.5625 -0.765625 C 0.5625 -1.109375 0.53125 -1.523438 0.46875 -2.015625 C 0.40625 -2.460938 0.375 -2.703125 0.375 -2.734375 Z M 0.546875 -4.578125 C 0.929688 -4.578125 1.125 -4.382812 1.125 -4 C 1.125 -3.789062 1.015625 -3.6875 0.796875 -3.6875 C 0.410156 -3.6875 0.21875 -3.863281 0.21875 -4.21875 C 0.21875 -4.457031 0.328125 -4.578125 0.546875 -4.578125 Z M 0.546875 -4.578125 "/>
</g>
<g id="glyph-3-1">
<path d="M 0.703125 0.15625 C 0.472656 0.15625 0.359375 0.0859375 0.359375 -0.046875 C 0.359375 -0.0976562 0.375 -0.207031 0.40625 -0.375 C 0.4375 -0.582031 0.457031 -0.703125 0.46875 -0.734375 C 0.507812 -1.171875 0.53125 -1.648438 0.53125 -2.171875 C 0.53125 -2.753906 0.472656 -3.882812 0.359375 -5.5625 C 0.347656 -5.6875 0.265625 -5.890625 0.109375 -6.171875 C -0.0351562 -6.453125 -0.109375 -6.640625 -0.109375 -6.734375 C -0.109375 -6.890625 -0.0078125 -6.96875 0.1875 -6.96875 C 0.375 -6.96875 0.566406 -6.828125 0.765625 -6.546875 C 0.835938 -6.453125 1.007812 -6.164062 1.28125 -5.6875 C 1.675781 -4.976562 2.242188 -4.050781 2.984375 -2.90625 C 3.097656 -2.71875 3.269531 -2.441406 3.5 -2.078125 C 3.695312 -1.773438 3.882812 -1.515625 4.0625 -1.296875 C 4.195312 -2.179688 4.265625 -3 4.265625 -3.75 C 4.265625 -4.257812 4.21875 -5.035156 4.125 -6.078125 L 4.0625 -6.828125 C 4.0625 -6.921875 4.132812 -6.96875 4.28125 -6.96875 C 4.488281 -6.96875 4.609375 -6.90625 4.640625 -6.78125 C 4.660156 -6.6875 4.6875 -6.363281 4.71875 -5.8125 C 4.769531 -5.019531 4.796875 -4.21875 4.796875 -3.40625 C 4.796875 -1.125 4.609375 0.015625 4.234375 0.015625 C 4.066406 0.015625 3.867188 -0.207031 3.640625 -0.65625 C 3.515625 -0.90625 3.414062 -1.078125 3.34375 -1.171875 C 3.039062 -1.609375 2.65625 -2.191406 2.1875 -2.921875 L 1.046875 -4.6875 C 1.128906 -4.082031 1.171875 -3.523438 1.171875 -3.015625 C 1.171875 -2.628906 1.117188 -1.929688 1.015625 -0.921875 C 1.003906 -0.742188 0.972656 -0.425781 0.921875 0.03125 C 0.910156 0.113281 0.835938 0.15625 0.703125 0.15625 Z M 0.703125 0.15625 "/>
</g>
<g id="glyph-3-2">
<path d="M 0.640625 -2.390625 C 1.035156 -2.660156 1.359375 -2.796875 1.609375 -2.796875 C 2.035156 -2.796875 2.378906 -2.601562 2.640625 -2.21875 C 2.867188 -1.875 2.984375 -1.476562 2.984375 -1.03125 C 2.984375 -0.726562 2.914062 -0.363281 2.78125 0.0625 C 2.738281 0.164062 2.628906 0.21875 2.453125 0.21875 C 2.296875 0.21875 2.21875 0.164062 2.21875 0.0625 C 2.21875 -0.0507812 2.25 -0.226562 2.3125 -0.46875 C 2.382812 -0.71875 2.421875 -0.90625 2.421875 -1.03125 C 2.421875 -1.375 2.347656 -1.65625 2.203125 -1.875 C 2.035156 -2.125 1.789062 -2.25 1.46875 -2.25 C 1.164062 -2.25 0.910156 -2.101562 0.703125 -1.8125 L 0.703125 -1.796875 C 0.703125 -1.710938 0.710938 -1.585938 0.734375 -1.421875 C 0.753906 -1.253906 0.765625 -1.132812 0.765625 -1.0625 C 0.765625 -0.695312 0.707031 -0.398438 0.59375 -0.171875 C 0.550781 -0.078125 0.460938 -0.03125 0.328125 -0.03125 C 0.0859375 -0.03125 -0.03125 -0.347656 -0.03125 -0.984375 C -0.03125 -1.097656 -0.0078125 -1.265625 0.03125 -1.484375 C 0.0703125 -1.710938 0.09375 -1.875 0.09375 -1.96875 C 0.09375 -2.007812 0.0625 -2.09375 0 -2.21875 C -0.0703125 -2.351562 -0.109375 -2.445312 -0.109375 -2.5 C -0.109375 -2.582031 -0.0625 -2.65625 0.03125 -2.71875 C 0.113281 -2.769531 0.203125 -2.796875 0.296875 -2.796875 C 0.421875 -2.796875 0.503906 -2.753906 0.546875 -2.671875 Z M 0.640625 -2.390625 "/>
</g>
<g id="glyph-3-3">
<path d="M 1.3125 -5.484375 C 1.46875 -5.484375 1.550781 -5.4375 1.5625 -5.34375 C 1.582031 -5.269531 1.59375 -5.085938 1.59375 -4.796875 C 1.59375 -4.472656 1.582031 -3.984375 1.5625 -3.328125 C 1.539062 -2.671875 1.53125 -2.179688 1.53125 -1.859375 C 1.53125 -1.410156 1.539062 -1.03125 1.5625 -0.71875 C 1.5625 -0.675781 1.570312 -0.582031 1.59375 -0.4375 C 1.601562 -0.320312 1.609375 -0.234375 1.609375 -0.171875 C 1.609375 -0.0546875 1.515625 0 1.328125 0 C 1.160156 0 1.066406 -0.046875 1.046875 -0.140625 C 1.046875 -0.179688 1.035156 -0.441406 1.015625 -0.921875 C 0.992188 -1.671875 0.984375 -2.394531 0.984375 -3.09375 C 0.984375 -4.457031 1.019531 -5.21875 1.09375 -5.375 C 1.125 -5.445312 1.195312 -5.484375 1.3125 -5.484375 Z M 1.3125 -5.484375 "/>
</g>
<g id="glyph-3-4">
<path d="M 0.203125 0.046875 C 0.203125 -0.148438 0.210938 -0.441406 0.234375 -0.828125 C 0.253906 -1.210938 0.265625 -1.503906 0.265625 -1.703125 C 0.265625 -2.585938 0.179688 -4.019531 0.015625 -6 C 0.00390625 -6.101562 0 -6.203125 0 -6.296875 C 0 -6.609375 0.0664062 -6.765625 0.203125 -6.765625 C 0.367188 -6.765625 0.726562 -6.425781 1.28125 -5.75 L 2.359375 -4.4375 C 2.390625 -4.445312 2.550781 -4.648438 2.84375 -5.046875 C 3.226562 -5.578125 3.507812 -5.953125 3.6875 -6.171875 C 4.007812 -6.566406 4.238281 -6.765625 4.375 -6.765625 C 4.46875 -6.765625 4.507812 -6.671875 4.5 -6.484375 L 4.5 -6.421875 L 4.484375 -6.34375 L 4.46875 -5.9375 C 4.4375 -5.570312 4.421875 -5.25 4.421875 -4.96875 C 4.421875 -4.5 4.503906 -3.773438 4.671875 -2.796875 C 4.828125 -1.910156 4.90625 -1.019531 4.90625 -0.125 C 4.90625 -0.03125 4.820312 0.015625 4.65625 0.015625 C 4.457031 0.015625 4.359375 -0.0351562 4.359375 -0.140625 C 4.359375 -0.234375 4.351562 -0.394531 4.34375 -0.625 C 4.320312 -0.988281 4.296875 -1.332031 4.265625 -1.65625 C 4.253906 -1.8125 4.179688 -2.335938 4.046875 -3.234375 C 3.960938 -3.878906 3.921875 -4.410156 3.921875 -4.828125 C 3.921875 -5.046875 3.925781 -5.273438 3.9375 -5.515625 L 3.109375 -4.4375 C 2.628906 -3.832031 2.363281 -3.523438 2.3125 -3.515625 C 2.03125 -3.742188 1.726562 -4.070312 1.40625 -4.5 L 0.578125 -5.5625 C 0.691406 -4.726562 0.753906 -3.335938 0.765625 -1.390625 C 0.765625 -1.210938 0.769531 -0.972656 0.78125 -0.671875 C 0.789062 -0.367188 0.796875 -0.128906 0.796875 0.046875 C 0.796875 0.160156 0.695312 0.21875 0.5 0.21875 C 0.300781 0.21875 0.203125 0.160156 0.203125 0.046875 Z M 0.203125 0.046875 "/>
</g>
<g id="glyph-3-5">
<path d="M 1.3125 -1.96875 C 1.3125 -2.101562 1.421875 -2.171875 1.640625 -2.171875 C 1.816406 -2.171875 1.910156 -2.117188 1.921875 -2.015625 C 1.929688 -1.878906 1.957031 -1.628906 2 -1.265625 C 2.050781 -0.910156 2.101562 -0.398438 2.15625 0.265625 C 2.207031 0.953125 2.234375 1.488281 2.234375 1.875 C 2.234375 2.601562 2.148438 3.125 1.984375 3.4375 C 1.742188 3.863281 1.289062 4.078125 0.625 4.078125 C -0.132812 4.078125 -0.84375 3.78125 -1.5 3.1875 C -1.59375 3.101562 -1.757812 2.945312 -2 2.71875 C -2.03125 2.6875 -2.046875 2.632812 -2.046875 2.5625 C -2.046875 2.488281 -2.023438 2.40625 -1.984375 2.3125 C -1.929688 2.195312 -1.875 2.140625 -1.8125 2.140625 C -1.789062 2.140625 -1.648438 2.265625 -1.390625 2.515625 C -1.109375 2.796875 -0.945312 2.953125 -0.90625 2.984375 C -0.789062 3.085938 -0.65625 3.175781 -0.5 3.25 C -0.144531 3.425781 0.28125 3.515625 0.78125 3.515625 C 1.164062 3.515625 1.410156 3.378906 1.515625 3.109375 C 1.648438 2.773438 1.71875 2.363281 1.71875 1.875 C 1.71875 1.71875 1.671875 1.082031 1.578125 -0.03125 C 1.554688 -0.28125 1.5 -0.75 1.40625 -1.4375 Z M 1.09375 -4.578125 C 1.457031 -4.578125 1.640625 -4.382812 1.640625 -4 C 1.640625 -3.789062 1.535156 -3.6875 1.328125 -3.6875 C 0.960938 -3.6875 0.78125 -3.863281 0.78125 -4.21875 C 0.78125 -4.457031 0.882812 -4.578125 1.09375 -4.578125 Z M 1.09375 -4.578125 "/>
</g>
<g id="glyph-3-6">
<path d="M 0.546875 -2.71875 C 0.546875 -2.132812 0.660156 -1.648438 0.890625 -1.265625 C 1.160156 -0.796875 1.5625 -0.5625 2.09375 -0.5625 C 2.65625 -0.5625 3.125 -0.8125 3.5 -1.3125 C 3.851562 -1.769531 4.03125 -2.285156 4.03125 -2.859375 C 4.03125 -3.160156 3.910156 -3.484375 3.671875 -3.828125 C 3.472656 -4.109375 3.226562 -4.351562 2.9375 -4.5625 C 2.789062 -4.675781 2.6875 -4.734375 2.625 -4.734375 L 2.59375 -4.734375 C 2.582031 -4.722656 2.53125 -4.664062 2.4375 -4.5625 C 2.363281 -4.476562 2.300781 -4.4375 2.25 -4.4375 C 2.164062 -4.4375 2.09375 -4.488281 2.03125 -4.59375 C 1.96875 -4.6875 1.9375 -4.773438 1.9375 -4.859375 C 1.9375 -4.984375 2.046875 -5.125 2.265625 -5.28125 C 2.347656 -5.332031 2.457031 -5.359375 2.59375 -5.359375 C 2.90625 -5.359375 3.25 -5.179688 3.625 -4.828125 C 4.269531 -4.222656 4.59375 -3.597656 4.59375 -2.953125 C 4.59375 -2.210938 4.363281 -1.539062 3.90625 -0.9375 C 3.414062 -0.269531 2.8125 0.0625 2.09375 0.0625 C 1.382812 0.0625 0.84375 -0.253906 0.46875 -0.890625 C 0.15625 -1.410156 0 -2.054688 0 -2.828125 C 0 -2.929688 0.00390625 -3.035156 0.015625 -3.140625 C 0.0351562 -3.503906 0.285156 -4.039062 0.765625 -4.75 C 1.035156 -5.144531 1.238281 -5.390625 1.375 -5.484375 C 1.414062 -5.503906 1.460938 -5.515625 1.515625 -5.515625 C 1.597656 -5.515625 1.679688 -5.492188 1.765625 -5.453125 C 1.867188 -5.410156 1.921875 -5.359375 1.921875 -5.296875 C 1.890625 -5.253906 1.78125 -5.109375 1.59375 -4.859375 C 0.945312 -4.035156 0.609375 -3.460938 0.578125 -3.140625 C 0.554688 -3.003906 0.546875 -2.863281 0.546875 -2.71875 Z M 0.546875 -2.71875 "/>
</g>
<g id="glyph-4-0">
<path d="M 13.828125 10.765625 L 13.578125 10.765625 C 13.1875 11.796875 12.125 12.484375 10.984375 12.78125 C 10.78125 12.828125 9.796875 13.09375 7.890625 13.09375 L 1.875 13.09375 L 6.953125 7.140625 C 7.015625 7.0625 7.03125 7.03125 7.03125 6.984375 C 7.03125 6.984375 7.03125 6.921875 6.96875 6.828125 L 2.328125 0.484375 L 7.78125 0.484375 C 9.125 0.484375 10.03125 0.625 10.125 0.640625 C 10.65625 0.71875 11.53125 0.890625 12.3125 1.390625 C 12.5625 1.546875 13.234375 2 13.578125 2.796875 L 13.828125 2.796875 L 12.625 0 L 0.84375 0 C 0.609375 0 0.59375 0.015625 0.5625 0.0625 C 0.5625 0.09375 0.5625 0.296875 0.5625 0.40625 L 5.828125 7.609375 L 0.671875 13.671875 C 0.5625 13.78125 0.5625 13.84375 0.5625 13.84375 C 0.5625 13.953125 0.65625 13.953125 0.84375 13.953125 L 12.625 13.953125 Z M 13.828125 10.765625 "/>
</g>
<g id="glyph-4-1">
<path d="M 7.15625 0.25 C 7.15625 0.015625 7.140625 0.015625 6.890625 0.015625 L 6.734375 0.015625 C 4.59375 1.171875 3.828125 3.046875 3.828125 4.515625 L 3.828125 8.796875 C 3.828125 9.0625 3.84375 9.078125 4.109375 9.078125 L 4.75 9.078125 C 5.015625 9.078125 5.03125 9.0625 5.03125 8.796875 L 5.03125 4.515625 C 5.03125 3.703125 5.25 1.796875 7.015625 0.53125 C 7.140625 0.4375 7.15625 0.421875 7.15625 0.25 Z M 7.15625 0.25 "/>
</g>
<g id="glyph-4-2">
<path d="M 5.03125 2.828125 L 5.03125 0.171875 C 5.03125 -0.09375 5.015625 -0.09375 4.75 -0.09375 L 4.109375 -0.09375 C 3.84375 -0.09375 3.828125 -0.09375 3.828125 0.171875 L 3.828125 2.828125 C 3.828125 3.078125 3.84375 3.09375 4.109375 3.09375 L 4.75 3.09375 C 5.015625 3.09375 5.03125 3.078125 5.03125 2.828125 Z M 5.03125 2.828125 "/>
</g>
<g id="glyph-4-3">
<path d="M 5.03125 17.78125 L 5.03125 13.5625 C 5.03125 12.359375 4.515625 10.328125 2.28125 8.96875 C 4.53125 7.609375 5.03125 5.546875 5.03125 4.375 L 5.03125 0.171875 C 5.03125 -0.09375 5.015625 -0.09375 4.75 -0.09375 L 4.109375 -0.09375 C 3.84375 -0.09375 3.828125 -0.09375 3.828125 0.171875 L 3.828125 4.390625 C 3.828125 5.21875 3.65625 7.296875 1.8125 8.6875 C 1.703125 8.78125 1.6875 8.796875 1.6875 8.96875 C 1.6875 9.15625 1.703125 9.15625 1.8125 9.25 C 2.078125 9.453125 2.765625 9.984375 3.234375 10.984375 C 3.625 11.78125 3.828125 12.671875 3.828125 13.5625 L 3.828125 17.78125 C 3.828125 18.03125 3.84375 18.046875 4.109375 18.046875 L 4.75 18.046875 C 5.015625 18.046875 5.03125 18.03125 5.03125 17.78125 Z M 5.03125 17.78125 "/>
</g>
<g id="glyph-4-4">
<path d="M 7.15625 8.71875 C 7.15625 8.546875 7.140625 8.53125 7.109375 8.5 C 6.796875 8.28125 6.078125 7.765625 5.609375 6.84375 C 5.21875 6.09375 5.03125 5.328125 5.03125 4.453125 L 5.03125 0.171875 C 5.03125 -0.09375 5.015625 -0.09375 4.75 -0.09375 L 4.109375 -0.09375 C 3.84375 -0.09375 3.828125 -0.09375 3.828125 0.171875 L 3.828125 4.453125 C 3.828125 5.9375 4.59375 7.8125 6.734375 8.96875 L 6.890625 8.96875 C 7.140625 8.96875 7.15625 8.953125 7.15625 8.71875 Z M 7.15625 8.71875 "/>
</g>
<g id="glyph-4-5">
<path d="M 5.03125 8.796875 L 5.03125 4.515625 C 5.03125 3.046875 4.25 1.171875 2.109375 0.015625 L 1.96875 0.015625 C 1.703125 0.015625 1.6875 0.015625 1.6875 0.25 C 1.6875 0.421875 1.703125 0.4375 1.75 0.46875 C 2.046875 0.703125 2.765625 1.203125 3.234375 2.125 C 3.515625 2.65625 3.828125 3.4375 3.828125 4.515625 L 3.828125 8.796875 C 3.828125 9.0625 3.84375 9.078125 4.109375 9.078125 L 4.75 9.078125 C 5.015625 9.078125 5.03125 9.0625 5.03125 8.796875 Z M 5.03125 8.796875 "/>
</g>
<g id="glyph-4-6">
<path d="M 7.15625 8.96875 C 7.15625 8.796875 7.140625 8.78125 7.03125 8.6875 C 6.78125 8.5 6.09375 7.96875 5.609375 6.953125 C 5.21875 6.15625 5.03125 5.28125 5.03125 4.390625 L 5.03125 0.171875 C 5.03125 -0.09375 5.015625 -0.09375 4.75 -0.09375 L 4.109375 -0.09375 C 3.84375 -0.09375 3.828125 -0.09375 3.828125 0.171875 L 3.828125 4.375 C 3.828125 5.578125 4.34375 7.609375 6.5625 8.96875 C 4.3125 10.34375 3.828125 12.390625 3.828125 13.5625 L 3.828125 17.78125 C 3.828125 18.03125 3.84375 18.046875 4.109375 18.046875 L 4.75 18.046875 C 5.015625 18.046875 5.03125 18.03125 5.03125 17.78125 L 5.03125 13.5625 C 5.03125 12.71875 5.203125 10.640625 7.03125 9.25 C 7.140625 9.15625 7.15625 9.15625 7.15625 8.96875 Z M 7.15625 8.96875 "/>
</g>
<g id="glyph-4-7">
<path d="M 5.03125 4.453125 L 5.03125 0.171875 C 5.03125 -0.09375 5.015625 -0.09375 4.75 -0.09375 L 4.109375 -0.09375 C 3.84375 -0.09375 3.828125 -0.09375 3.828125 0.171875 L 3.828125 4.453125 C 3.828125 5.328125 3.59375 7.203125 1.828125 8.4375 C 1.703125 8.53125 1.6875 8.546875 1.6875 8.71875 C 1.6875 8.953125 1.703125 8.96875 1.96875 8.96875 L 2.109375 8.96875 C 4.265625 7.8125 5.03125 5.921875 5.03125 4.453125 Z M 5.03125 4.453125 "/>
</g>
<g id="glyph-4-8">
<path d="M 5.578125 17.4375 C 5.578125 17.390625 5.5625 17.375 5.546875 17.34375 C 5.1875 16.984375 4.640625 16.4375 4.03125 15.34375 C 2.953125 13.421875 2.546875 10.96875 2.546875 8.578125 C 2.546875 4.140625 3.8125 1.546875 5.546875 -0.21875 C 5.578125 -0.25 5.578125 -0.296875 5.578125 -0.296875 C 5.578125 -0.40625 5.515625 -0.40625 5.390625 -0.40625 C 5.265625 -0.40625 5.25 -0.40625 5.15625 -0.3125 C 4.203125 0.5 3.140625 1.890625 2.453125 3.984375 C 2.03125 5.296875 1.796875 6.90625 1.796875 8.5625 C 1.796875 10.921875 2.21875 13.59375 3.78125 15.90625 C 4.0625 16.296875 4.421875 16.71875 4.421875 16.71875 C 4.53125 16.84375 4.671875 17 4.75 17.0625 L 5.140625 17.421875 C 5.15625 17.4375 5.25 17.53125 5.25 17.53125 L 5.46875 17.53125 C 5.5 17.53125 5.578125 17.53125 5.578125 17.4375 Z M 5.578125 17.4375 "/>
</g>
<g id="glyph-4-9">
<path d="M 9.953125 7.484375 L 9.703125 7.484375 C 9.453125 8.234375 8.796875 8.84375 7.9375 9.125 C 7.78125 9.1875 7.09375 9.421875 5.625 9.421875 L 1.390625 9.421875 L 4.859375 5.140625 C 4.921875 5.046875 4.9375 5.03125 4.9375 4.984375 C 4.9375 4.9375 4.9375 4.9375 4.875 4.84375 L 1.640625 0.40625 L 5.578125 0.40625 C 6.71875 0.40625 9.015625 0.46875 9.703125 2.328125 L 9.953125 2.328125 L 9.09375 0 L 0.84375 0 C 0.5625 0 0.5625 0.015625 0.5625 0.3125 L 4.203125 5.328125 L 0.65625 9.703125 C 0.578125 9.796875 0.5625 9.8125 0.5625 9.859375 C 0.5625 9.96875 0.65625 9.96875 0.84375 9.96875 L 9.09375 9.96875 Z M 9.953125 7.484375 "/>
</g>
<g id="glyph-4-10">
<path d="M 4.140625 8.5625 C 4.140625 5.703125 3.484375 2.65625 1.515625 0.421875 C 1.375 0.265625 1 -0.125 0.765625 -0.34375 C 0.703125 -0.40625 0.671875 -0.40625 0.546875 -0.40625 C 0.453125 -0.40625 0.359375 -0.40625 0.359375 -0.296875 C 0.359375 -0.265625 0.40625 -0.21875 0.421875 -0.203125 C 0.75 0.15625 1.296875 0.703125 1.90625 1.796875 C 2.984375 3.703125 3.390625 6.171875 3.390625 8.5625 C 3.390625 12.890625 2.1875 15.53125 0.40625 17.359375 C 0.375 17.375 0.359375 17.40625 0.359375 17.4375 C 0.359375 17.53125 0.453125 17.53125 0.546875 17.53125 C 0.671875 17.53125 0.703125 17.53125 0.78125 17.453125 C 1.734375 16.640625 2.796875 15.25 3.484375 13.15625 C 3.921875 11.78125 4.140625 10.171875 4.140625 8.5625 Z M 4.140625 8.5625 "/>
</g>
<g id="glyph-5-0">
<path d="M 5.609375 -2.515625 C 5.609375 -2.6875 5.453125 -2.6875 5.359375 -2.6875 L 0.75 -2.6875 C 0.65625 -2.6875 0.484375 -2.6875 0.484375 -2.515625 C 0.484375 -2.34375 0.640625 -2.34375 0.75 -2.34375 L 5.359375 -2.34375 C 5.453125 -2.34375 5.609375 -2.34375 5.609375 -2.515625 Z M 5.609375 -0.96875 C 5.609375 -1.15625 5.453125 -1.15625 5.359375 -1.15625 L 0.75 -1.15625 C 0.640625 -1.15625 0.484375 -1.15625 0.484375 -0.96875 C 0.484375 -0.8125 0.65625 -0.8125 0.75 -0.8125 L 5.359375 -0.8125 C 5.453125 -0.8125 5.609375 -0.8125 5.609375 -0.96875 Z M 5.609375 -0.96875 "/>
</g>
<g id="glyph-5-1">
<path d="M 5.609375 -1.734375 C 5.609375 -1.921875 5.453125 -1.921875 5.359375 -1.921875 L 3.21875 -1.921875 L 3.21875 -4.0625 C 3.21875 -4.140625 3.21875 -4.3125 3.0625 -4.3125 C 2.890625 -4.3125 2.890625 -4.15625 2.890625 -4.0625 L 2.890625 -1.921875 L 0.75 -1.921875 C 0.65625 -1.921875 0.484375 -1.921875 0.484375 -1.75 C 0.484375 -1.578125 0.640625 -1.578125 0.75 -1.578125 L 2.890625 -1.578125 L 2.890625 0.5625 C 2.890625 0.65625 2.890625 0.828125 3.046875 0.828125 C 3.21875 0.828125 3.21875 0.65625 3.21875 0.5625 L 3.21875 -1.578125 L 5.359375 -1.578125 C 5.453125 -1.578125 5.609375 -1.578125 5.609375 -1.734375 Z M 5.609375 -1.734375 "/>
</g>
<g id="glyph-6-0">
<path d="M 6.921875 -2.5 C 6.921875 -2.6875 6.734375 -2.6875 6.59375 -2.6875 L 1.15625 -2.6875 C 1.015625 -2.6875 0.828125 -2.6875 0.828125 -2.5 C 0.828125 -2.296875 1.015625 -2.296875 1.15625 -2.296875 L 6.59375 -2.296875 C 6.734375 -2.296875 6.921875 -2.296875 6.921875 -2.5 Z M 6.921875 -2.5 "/>
</g>
</g>
<clipPath id="clip-0">
<path clip-rule="nonzero" d="M 136 65 L 350.53125 65 L 350.53125 66 L 136 66 Z M 136 65 "/>
</clipPath>
<clipPath id="clip-1">
<path clip-rule="nonzero" d="M 40 281 L 45 281 L 45 289.648438 L 40 289.648438 Z M 40 281 "/>
</clipPath>
</defs>
<g fill="rgb(0%, 0%, 0%)" fill-opacity="1">
<use xlink:href="#glyph-0-0" x="-0.466" y="17.201"/>
<use xlink:href="#glyph-0-1" x="5.312308" y="17.201"/>
</g>
<g fill="rgb(0%, 0%, 0%)" fill-opacity="1">
<use xlink:href="#glyph-1-0" x="12.447" y="17.201"/>
</g>
<g fill="rgb(0%, 0%, 0%)" fill-opacity="1">
<use xlink:href="#glyph-2-0" x="17.05" y="17.201"/>
</g>
<g fill="rgb(0%, 0%, 0%)" fill-opacity="1">
<use xlink:href="#glyph-0-2" x="16.321" y="17.201"/>
</g>
<g fill="rgb(0%, 0%, 0%)" fill-opacity="1">
<use xlink:href="#glyph-1-1" x="24.292" y="17.201"/>
</g>
<path fill="none" stroke-width="0.3985" stroke-linecap="butt" stroke-linejoin="miter" stroke="rgb(0%, 0%, 0%)" stroke-opacity="1" stroke-miterlimit="10" d="M 112.506156 -31.880219 L 141.135063 -31.880219 " transform="matrix(1, 0, 0, -1, -112.971, -10.431)"/>
<g fill="rgb(0%, 0%, 0%)" fill-opacity="1">
<use xlink:href="#glyph-0-0" x="5.68" y="32.746"/>
<use xlink:href="#glyph-0-2" x="11.458308" y="32.746"/>
</g>
<g fill="rgb(0%, 0%, 0%)" fill-opacity="1">
<use xlink:href="#glyph-3-0" x="19.43" y="34.241"/>
</g>
<g fill="rgb(0%, 0%, 0%)" fill-opacity="1">
<use xlink:href="#glyph-1-2" x="32.129" y="23.94"/>
</g>
<g fill="rgb(0%, 0%, 0%)" fill-opacity="1">
<use xlink:href="#glyph-3-1" x="47.051" y="11.487"/>
</g>
<g fill="rgb(0%, 0%, 0%)" fill-opacity="1">
<use xlink:href="#glyph-4-0" x="42.645" y="14.476"/>
</g>
<g fill="rgb(0%, 0%, 0%)" fill-opacity="1">
<use xlink:href="#glyph-3-2" x="43.672" y="36.576"/>
</g>
<g fill="rgb(0%, 0%, 0%)" fill-opacity="1">
<use xlink:href="#glyph-5-0" x="47.355" y="36.576"/>
</g>
<g fill="rgb(0%, 0%, 0%)" fill-opacity="1">
<use xlink:href="#glyph-3-3" x="53.471" y="36.576"/>
</g>
<g fill="rgb(0%, 0%, 0%)" fill-opacity="1">
<use xlink:href="#glyph-4-1" x="58.696" y="0.528"/>
</g>
<g fill="rgb(0%, 0%, 0%)" fill-opacity="1">
<use xlink:href="#glyph-4-2" x="58.696" y="9.494"/>
</g>
<g fill="rgb(0%, 0%, 0%)" fill-opacity="1">
<use xlink:href="#glyph-4-3" x="58.696" y="12.483"/>
</g>
<g fill="rgb(0%, 0%, 0%)" fill-opacity="1">
<use xlink:href="#glyph-4-2" x="58.696" y="30.416"/>
</g>
<g fill="rgb(0%, 0%, 0%)" fill-opacity="1">
<use xlink:href="#glyph-4-4" x="58.696" y="33.405"/>
</g>
<g fill="rgb(0%, 0%, 0%)" fill-opacity="1">
<use xlink:href="#glyph-3-4" x="71.865" y="11.487"/>
</g>
<g fill="rgb(0%, 0%, 0%)" fill-opacity="1">
<use xlink:href="#glyph-4-0" x="67.599" y="14.476"/>
</g>
<g fill="rgb(0%, 0%, 0%)" fill-opacity="1">
<use xlink:href="#glyph-3-5" x="67.552" y="36.597"/>
</g>
<g fill="rgb(0%, 0%, 0%)" fill-opacity="1">
<use xlink:href="#glyph-5-0" x="70.62" y="36.597"/>
</g>
<g fill="rgb(0%, 0%, 0%)" fill-opacity="1">
<use xlink:href="#glyph-3-6" x="76.736" y="36.597"/>
</g>
<g fill="rgb(0%, 0%, 0%)" fill-opacity="1">
<use xlink:href="#glyph-0-2" x="83.697" y="23.94"/>
</g>
<g fill="rgb(0%, 0%, 0%)" fill-opacity="1">
<use xlink:href="#glyph-3-5" x="91.667" y="25.435"/>
</g>
<g fill="rgb(0%, 0%, 0%)" fill-opacity="1">
<use xlink:href="#glyph-0-3" x="95.234" y="23.94"/>
</g>
<g fill="rgb(0%, 0%, 0%)" fill-opacity="1">
<use xlink:href="#glyph-3-5" x="100.015" y="16.426"/>
</g>
<g fill="rgb(0%, 0%, 0%)" fill-opacity="1">
<use xlink:href="#glyph-3-2" x="100.015" y="24.909"/>
</g>
<g fill="rgb(0%, 0%, 0%)" fill-opacity="1">
<use xlink:href="#glyph-6-0" x="106.41" y="23.94"/>
</g>
<g fill="rgb(0%, 0%, 0%)" fill-opacity="1">
<use xlink:href="#glyph-0-4" x="116.373" y="23.94"/>
</g>
<g fill="rgb(0%, 0%, 0%)" fill-opacity="1">
<use xlink:href="#glyph-3-2" x="121.074" y="25.435"/>
</g>
<g fill="rgb(0%, 0%, 0%)" fill-opacity="1">
<use xlink:href="#glyph-4-5" x="125.255" y="0.528"/>
</g>
<g fill="rgb(0%, 0%, 0%)" fill-opacity="1">
<use xlink:href="#glyph-4-2" x="125.255" y="9.494"/>
</g>
<g fill="rgb(0%, 0%, 0%)" fill-opacity="1">
<use xlink:href="#glyph-4-6" x="125.255" y="12.483"/>
</g>
<g fill="rgb(0%, 0%, 0%)" fill-opacity="1">
<use xlink:href="#glyph-4-2" x="125.255" y="30.416"/>
</g>
<g fill="rgb(0%, 0%, 0%)" fill-opacity="1">
<use xlink:href="#glyph-4-7" x="125.255" y="33.405"/>
</g>
<g fill="rgb(0%, 0%, 0%)" fill-opacity="1">
<use xlink:href="#glyph-0-0" x="136.967" y="12.983"/>
</g>
<g fill="rgb(0%, 0%, 0%)" fill-opacity="1">
<use xlink:href="#glyph-4-8" x="144.406" y="1.925"/>
</g>
<g fill="rgb(0%, 0%, 0%)" fill-opacity="1">
<use xlink:href="#glyph-4-9" x="150.356" y="5.511"/>
</g>
<g fill="rgb(0%, 0%, 0%)" fill-opacity="1">
<use xlink:href="#glyph-3-4" x="160.872" y="7.974"/>
</g>
<g fill="rgb(0%, 0%, 0%)" fill-opacity="1">
<use xlink:href="#glyph-3-5" x="160.872" y="15.972"/>
</g>
<g fill="rgb(0%, 0%, 0%)" fill-opacity="1">
<use xlink:href="#glyph-5-0" x="163.94" y="15.972"/>
</g>
<g fill="rgb(0%, 0%, 0%)" fill-opacity="1">
<use xlink:href="#glyph-3-6" x="170.057" y="15.972"/>
</g>
<g fill="rgb(0%, 0%, 0%)" fill-opacity="1">
<use xlink:href="#glyph-0-2" x="177.515" y="12.983"/>
</g>
<g fill="rgb(0%, 0%, 0%)" fill-opacity="1">
<use xlink:href="#glyph-3-5" x="185.486" y="14.478"/>
</g>
<g fill="rgb(0%, 0%, 0%)" fill-opacity="1">
<use xlink:href="#glyph-0-3" x="189.052" y="12.983"/>
</g>
<g fill="rgb(0%, 0%, 0%)" fill-opacity="1">
<use xlink:href="#glyph-3-5" x="193.834" y="5.469"/>
</g>
<g fill="rgb(0%, 0%, 0%)" fill-opacity="1">
<use xlink:href="#glyph-3-2" x="193.834" y="13.952"/>
</g>
<g fill="rgb(0%, 0%, 0%)" fill-opacity="1">
<use xlink:href="#glyph-6-0" x="200.229" y="12.983"/>
</g>
<g fill="rgb(0%, 0%, 0%)" fill-opacity="1">
<use xlink:href="#glyph-0-4" x="210.191" y="12.983"/>
</g>
<g fill="rgb(0%, 0%, 0%)" fill-opacity="1">
<use xlink:href="#glyph-3-2" x="214.893" y="14.478"/>
</g>
<g fill="rgb(0%, 0%, 0%)" fill-opacity="1">
<use xlink:href="#glyph-4-10" x="219.074" y="1.925"/>
</g>
<path fill="none" stroke-width="0.3985" stroke-linecap="butt" stroke-linejoin="miter" stroke="rgb(0%, 0%, 0%)" stroke-opacity="1" stroke-miterlimit="10" d="M 249.93975 -31.880219 L 337.994438 -31.880219 " transform="matrix(1, 0, 0, -1, -112.971, -10.431)"/>
<g fill="rgb(0%, 0%, 0%)" fill-opacity="1">
<use xlink:href="#glyph-0-0" x="172.825" y="32.746"/>
<use xlink:href="#glyph-0-2" x="178.603308" y="32.746"/>
</g>
<g fill="rgb(0%, 0%, 0%)" fill-opacity="1">
<use xlink:href="#glyph-3-0" x="186.575" y="34.241"/>
</g>
<g fill="rgb(0%, 0%, 0%)" fill-opacity="1">
<use xlink:href="#glyph-1-2" x="32.129" y="67.776"/>
</g>
<g fill="rgb(0%, 0%, 0%)" fill-opacity="1">
<use xlink:href="#glyph-3-1" x="47.051" y="55.323"/>
</g>
<g fill="rgb(0%, 0%, 0%)" fill-opacity="1">
<use xlink:href="#glyph-4-0" x="42.645" y="58.312"/>
</g>
<g fill="rgb(0%, 0%, 0%)" fill-opacity="1">
<use xlink:href="#glyph-3-2" x="43.672" y="80.412"/>
</g>
<g fill="rgb(0%, 0%, 0%)" fill-opacity="1">
<use xlink:href="#glyph-5-0" x="47.355" y="80.412"/>
</g>
<g fill="rgb(0%, 0%, 0%)" fill-opacity="1">
<use xlink:href="#glyph-3-3" x="53.471" y="80.412"/>
</g>
<g fill="rgb(0%, 0%, 0%)" fill-opacity="1">
<use xlink:href="#glyph-4-1" x="58.696" y="44.364"/>
</g>
<g fill="rgb(0%, 0%, 0%)" fill-opacity="1">
<use xlink:href="#glyph-4-2" x="58.696" y="53.33"/>
</g>
<g fill="rgb(0%, 0%, 0%)" fill-opacity="1">
<use xlink:href="#glyph-4-3" x="58.696" y="56.319"/>
</g>
<g fill="rgb(0%, 0%, 0%)" fill-opacity="1">
<use xlink:href="#glyph-4-2" x="58.696" y="74.252"/>
</g>
<g fill="rgb(0%, 0%, 0%)" fill-opacity="1">
<use xlink:href="#glyph-4-4" x="58.696" y="77.241"/>
</g>
<g fill="rgb(0%, 0%, 0%)" fill-opacity="1">
<use xlink:href="#glyph-3-4" x="71.865" y="55.323"/>
</g>
<g fill="rgb(0%, 0%, 0%)" fill-opacity="1">
<use xlink:href="#glyph-4-0" x="67.599" y="58.312"/>
</g>
<g fill="rgb(0%, 0%, 0%)" fill-opacity="1">
<use xlink:href="#glyph-3-5" x="67.552" y="80.433"/>
</g>
<g fill="rgb(0%, 0%, 0%)" fill-opacity="1">
<use xlink:href="#glyph-5-0" x="70.62" y="80.433"/>
</g>
<g fill="rgb(0%, 0%, 0%)" fill-opacity="1">
<use xlink:href="#glyph-3-6" x="76.736" y="80.433"/>
</g>
<g fill="rgb(0%, 0%, 0%)" fill-opacity="1">
<use xlink:href="#glyph-0-2" x="83.697" y="67.776"/>
</g>
<g fill="rgb(0%, 0%, 0%)" fill-opacity="1">
<use xlink:href="#glyph-3-5" x="91.667" y="69.271"/>
</g>
<g fill="rgb(0%, 0%, 0%)" fill-opacity="1">
<use xlink:href="#glyph-0-3" x="95.234" y="67.776"/>
</g>
<g fill="rgb(0%, 0%, 0%)" fill-opacity="1">
<use xlink:href="#glyph-3-5" x="100.015" y="60.262"/>
</g>
<g fill="rgb(0%, 0%, 0%)" fill-opacity="1">
<use xlink:href="#glyph-3-2" x="100.015" y="68.745"/>
</g>
<g fill="rgb(0%, 0%, 0%)" fill-opacity="1">
<use xlink:href="#glyph-6-0" x="106.41" y="67.776"/>
</g>
<g fill="rgb(0%, 0%, 0%)" fill-opacity="1">
<use xlink:href="#glyph-0-4" x="116.373" y="67.776"/>
</g>
<g fill="rgb(0%, 0%, 0%)" fill-opacity="1">
<use xlink:href="#glyph-3-2" x="121.074" y="69.271"/>
</g>
<g fill="rgb(0%, 0%, 0%)" fill-opacity="1">
<use xlink:href="#glyph-4-5" x="125.255" y="44.364"/>
</g>
<g fill="rgb(0%, 0%, 0%)" fill-opacity="1">
<use xlink:href="#glyph-4-2" x="125.255" y="53.33"/>
</g>
<g fill="rgb(0%, 0%, 0%)" fill-opacity="1">
<use xlink:href="#glyph-4-6" x="125.255" y="56.319"/>
</g>
<g fill="rgb(0%, 0%, 0%)" fill-opacity="1">
<use xlink:href="#glyph-4-2" x="125.255" y="74.252"/>
</g>
<g fill="rgb(0%, 0%, 0%)" fill-opacity="1">
<use xlink:href="#glyph-4-7" x="125.255" y="77.241"/>
</g>
<g fill="rgb(0%, 0%, 0%)" fill-opacity="1">
<use xlink:href="#glyph-0-0" x="136.967" y="57.415"/>
</g>
<g fill="rgb(0%, 0%, 0%)" fill-opacity="1">
<use xlink:href="#glyph-4-8" x="144.406" y="46.357"/>
</g>
<g fill="rgb(0%, 0%, 0%)" fill-opacity="1">
<use xlink:href="#glyph-0-2" x="150.356" y="57.415"/>
</g>
<g fill="rgb(0%, 0%, 0%)" fill-opacity="1">
<use xlink:href="#glyph-3-6" x="158.327" y="59.5"/>
</g>
<g fill="rgb(0%, 0%, 0%)" fill-opacity="1">
<use xlink:href="#glyph-0-3" x="164.125" y="57.415"/>
</g>
<g fill="rgb(0%, 0%, 0%)" fill-opacity="1">
<use xlink:href="#glyph-3-6" x="168.907" y="53.8"/>
</g>
<g fill="rgb(0%, 0%, 0%)" fill-opacity="1">
<use xlink:href="#glyph-3-2" x="168.907" y="59.878"/>
</g>
<g fill="rgb(0%, 0%, 0%)" fill-opacity="1">
<use xlink:href="#glyph-1-3" x="176.919" y="57.415"/>
</g>
<g fill="rgb(0%, 0%, 0%)" fill-opacity="1">
<use xlink:href="#glyph-0-2" x="186.882" y="57.415"/>
</g>
<g fill="rgb(0%, 0%, 0%)" fill-opacity="1">
<use xlink:href="#glyph-3-3" x="194.853" y="59.48"/>
</g>
<g fill="rgb(0%, 0%, 0%)" fill-opacity="1">
<use xlink:href="#glyph-0-3" x="197.889" y="57.415"/>
</g>
<g fill="rgb(0%, 0%, 0%)" fill-opacity="1">
<use xlink:href="#glyph-3-3" x="202.671" y="53.8"/>
</g>
<g fill="rgb(0%, 0%, 0%)" fill-opacity="1">
<use xlink:href="#glyph-3-2" x="202.671" y="59.878"/>
</g>
<g fill="rgb(0%, 0%, 0%)" fill-opacity="1">
<use xlink:href="#glyph-1-3" x="209.066" y="57.415"/>
</g>
<g fill="rgb(0%, 0%, 0%)" fill-opacity="1">
<use xlink:href="#glyph-2-1" x="219.029" y="57.415"/>
</g>
<g fill="rgb(0%, 0%, 0%)" fill-opacity="1">
<use xlink:href="#glyph-2-1" x="223.450402" y="57.415"/>
</g>
<g fill="rgb(0%, 0%, 0%)" fill-opacity="1">
<use xlink:href="#glyph-2-1" x="227.881766" y="57.415"/>
</g>
<g fill="rgb(0%, 0%, 0%)" fill-opacity="1">
<use xlink:href="#glyph-1-3" x="232.866" y="57.415"/>
</g>
<g fill="rgb(0%, 0%, 0%)" fill-opacity="1">
<use xlink:href="#glyph-0-2" x="242.828" y="57.415"/>
</g>
<g fill="rgb(0%, 0%, 0%)" fill-opacity="1">
<use xlink:href="#glyph-3-0" x="250.799" y="58.91"/>
</g>
<g fill="rgb(0%, 0%, 0%)" fill-opacity="1">
<use xlink:href="#glyph-0-3" x="253.39" y="57.415"/>
</g>
<g fill="rgb(0%, 0%, 0%)" fill-opacity="1">
<use xlink:href="#glyph-3-0" x="258.172" y="53.8"/>
</g>
<g fill="rgb(0%, 0%, 0%)" fill-opacity="1">
<use xlink:href="#glyph-3-2" x="258.172" y="59.878"/>
</g>
<g fill="rgb(0%, 0%, 0%)" fill-opacity="1">
<use xlink:href="#glyph-1-3" x="264.566" y="57.415"/>
</g>
<g fill="rgb(0%, 0%, 0%)" fill-opacity="1">
<use xlink:href="#glyph-2-1" x="274.529" y="57.415"/>
</g>
<g fill="rgb(0%, 0%, 0%)" fill-opacity="1">
<use xlink:href="#glyph-2-1" x="278.950402" y="57.415"/>
</g>
<g fill="rgb(0%, 0%, 0%)" fill-opacity="1">
<use xlink:href="#glyph-2-1" x="283.381766" y="57.415"/>
</g>
<g fill="rgb(0%, 0%, 0%)" fill-opacity="1">
<use xlink:href="#glyph-1-3" x="288.366" y="57.415"/>
</g>
<g fill="rgb(0%, 0%, 0%)" fill-opacity="1">
<use xlink:href="#glyph-0-2" x="298.329" y="57.415"/>
</g>
<g fill="rgb(0%, 0%, 0%)" fill-opacity="1">
<use xlink:href="#glyph-3-1" x="306.299" y="60.961"/>
</g>
<g fill="rgb(0%, 0%, 0%)" fill-opacity="1">
<use xlink:href="#glyph-0-3" x="312.377" y="57.415"/>
</g>
<g fill="rgb(0%, 0%, 0%)" fill-opacity="1">
<use xlink:href="#glyph-3-4" x="317.159" y="53.8"/>
</g>
<g fill="rgb(0%, 0%, 0%)" fill-opacity="1">
<use xlink:href="#glyph-3-2" x="317.159" y="59.878"/>
</g>
<g fill="rgb(0%, 0%, 0%)" fill-opacity="1">
<use xlink:href="#glyph-6-0" x="325.729" y="57.415"/>
</g>
<g fill="rgb(0%, 0%, 0%)" fill-opacity="1">
<use xlink:href="#glyph-0-4" x="335.692" y="57.415"/>
</g>
<g fill="rgb(0%, 0%, 0%)" fill-opacity="1">
<use xlink:href="#glyph-3-2" x="340.394" y="58.91"/>
</g>
<g fill="rgb(0%, 0%, 0%)" fill-opacity="1">
<use xlink:href="#glyph-4-10" x="344.574" y="46.356"/>
</g>
<g clip-path="url(#clip-0)">
<path fill="none" stroke-width="0.3985" stroke-linecap="butt" stroke-linejoin="miter" stroke="rgb(0%, 0%, 0%)" stroke-opacity="1" stroke-miterlimit="10" d="M 249.93975 -75.716156 L 463.494438 -75.716156 " transform="matrix(1, 0, 0, -1, -112.971, -10.431)"/>
</g>
<g fill="rgb(0%, 0%, 0%)" fill-opacity="1">
<use xlink:href="#glyph-0-0" x="235.575" y="76.582"/>
<use xlink:href="#glyph-0-2" x="241.353308" y="76.582"/>
</g>
<g fill="rgb(0%, 0%, 0%)" fill-opacity="1">
<use xlink:href="#glyph-3-0" x="249.325" y="78.077"/>
</g>
<g fill="rgb(0%, 0%, 0%)" fill-opacity="1">
<use xlink:href="#glyph-1-2" x="32.129" y="111.612"/>
</g>
<g fill="rgb(0%, 0%, 0%)" fill-opacity="1">
<use xlink:href="#glyph-3-1" x="47.051" y="99.159"/>
</g>
<g fill="rgb(0%, 0%, 0%)" fill-opacity="1">
<use xlink:href="#glyph-4-0" x="42.645" y="102.148"/>
</g>
<g fill="rgb(0%, 0%, 0%)" fill-opacity="1">
<use xlink:href="#glyph-3-2" x="43.672" y="124.248"/>
</g>
<g fill="rgb(0%, 0%, 0%)" fill-opacity="1">
<use xlink:href="#glyph-5-0" x="47.355" y="124.248"/>
</g>
<g fill="rgb(0%, 0%, 0%)" fill-opacity="1">
<use xlink:href="#glyph-3-3" x="53.471" y="124.248"/>
</g>
<g fill="rgb(0%, 0%, 0%)" fill-opacity="1">
<use xlink:href="#glyph-4-1" x="58.696" y="88.2"/>
</g>
<g fill="rgb(0%, 0%, 0%)" fill-opacity="1">
<use xlink:href="#glyph-4-2" x="58.696" y="97.166"/>
</g>
<g fill="rgb(0%, 0%, 0%)" fill-opacity="1">
<use xlink:href="#glyph-4-3" x="58.696" y="100.155"/>
</g>
<g fill="rgb(0%, 0%, 0%)" fill-opacity="1">
<use xlink:href="#glyph-4-2" x="58.696" y="118.088"/>
</g>
<g fill="rgb(0%, 0%, 0%)" fill-opacity="1">
<use xlink:href="#glyph-4-4" x="58.696" y="121.077"/>
</g>
<g fill="rgb(0%, 0%, 0%)" fill-opacity="1">
<use xlink:href="#glyph-3-4" x="71.865" y="99.159"/>
</g>
<g fill="rgb(0%, 0%, 0%)" fill-opacity="1">
<use xlink:href="#glyph-4-0" x="67.599" y="102.148"/>
</g>
<g fill="rgb(0%, 0%, 0%)" fill-opacity="1">
<use xlink:href="#glyph-3-5" x="67.552" y="124.269"/>
</g>
<g fill="rgb(0%, 0%, 0%)" fill-opacity="1">
<use xlink:href="#glyph-5-0" x="70.62" y="124.269"/>
</g>
<g fill="rgb(0%, 0%, 0%)" fill-opacity="1">
<use xlink:href="#glyph-3-6" x="76.736" y="124.269"/>
</g>
<g fill="rgb(0%, 0%, 0%)" fill-opacity="1">
<use xlink:href="#glyph-0-2" x="83.697" y="111.612"/>
</g>
<g fill="rgb(0%, 0%, 0%)" fill-opacity="1">
<use xlink:href="#glyph-3-5" x="91.667" y="113.107"/>
</g>
<g fill="rgb(0%, 0%, 0%)" fill-opacity="1">
<use xlink:href="#glyph-0-3" x="95.234" y="111.612"/>
</g>
<g fill="rgb(0%, 0%, 0%)" fill-opacity="1">
<use xlink:href="#glyph-3-5" x="100.015" y="104.098"/>
</g>
<g fill="rgb(0%, 0%, 0%)" fill-opacity="1">
<use xlink:href="#glyph-3-2" x="100.015" y="112.581"/>
</g>
<g fill="rgb(0%, 0%, 0%)" fill-opacity="1">
<use xlink:href="#glyph-6-0" x="106.41" y="111.612"/>
</g>
<g fill="rgb(0%, 0%, 0%)" fill-opacity="1">
<use xlink:href="#glyph-0-4" x="116.373" y="111.612"/>
</g>
<g fill="rgb(0%, 0%, 0%)" fill-opacity="1">
<use xlink:href="#glyph-3-2" x="121.074" y="113.107"/>
</g>
<g fill="rgb(0%, 0%, 0%)" fill-opacity="1">
<use xlink:href="#glyph-4-5" x="125.255" y="88.2"/>
</g>
<g fill="rgb(0%, 0%, 0%)" fill-opacity="1">
<use xlink:href="#glyph-4-2" x="125.255" y="97.166"/>
</g>
<g fill="rgb(0%, 0%, 0%)" fill-opacity="1">
<use xlink:href="#glyph-4-6" x="125.255" y="100.155"/>
</g>
<g fill="rgb(0%, 0%, 0%)" fill-opacity="1">
<use xlink:href="#glyph-4-2" x="125.255" y="118.088"/>
</g>
<g fill="rgb(0%, 0%, 0%)" fill-opacity="1">
<use xlink:href="#glyph-4-7" x="125.255" y="121.077"/>
</g>
<g fill="rgb(0%, 0%, 0%)" fill-opacity="1">
<use xlink:href="#glyph-0-3" x="135.771" y="111.612"/>
</g>
<g fill="rgb(0%, 0%, 0%)" fill-opacity="1">
<use xlink:href="#glyph-3-0" x="140.553" y="107.499"/>
</g>
<g fill="rgb(0%, 0%, 0%)" fill-opacity="1">
<use xlink:href="#glyph-3-2" x="140.553" y="114.075"/>
</g>
<g fill="rgb(0%, 0%, 0%)" fill-opacity="1">
<use xlink:href="#glyph-1-2" x="32.129" y="152.463"/>
</g>
<g fill="rgb(0%, 0%, 0%)" fill-opacity="1">
<use xlink:href="#glyph-3-1" x="47.051" y="140.01"/>
</g>
<g fill="rgb(0%, 0%, 0%)" fill-opacity="1">
<use xlink:href="#glyph-4-0" x="42.645" y="142.998"/>
</g>
<g fill="rgb(0%, 0%, 0%)" fill-opacity="1">
<use xlink:href="#glyph-3-2" x="43.672" y="165.099"/>
</g>
<g fill="rgb(0%, 0%, 0%)" fill-opacity="1">
<use xlink:href="#glyph-5-0" x="47.355" y="165.099"/>
</g>
<g fill="rgb(0%, 0%, 0%)" fill-opacity="1">
<use xlink:href="#glyph-3-3" x="53.471" y="165.099"/>
</g>
<g fill="rgb(0%, 0%, 0%)" fill-opacity="1">
<use xlink:href="#glyph-3-4" x="63.009" y="140.01"/>
</g>
<g fill="rgb(0%, 0%, 0%)" fill-opacity="1">
<use xlink:href="#glyph-4-0" x="58.743" y="142.998"/>
</g>
<g fill="rgb(0%, 0%, 0%)" fill-opacity="1">
<use xlink:href="#glyph-3-5" x="58.696" y="165.119"/>
</g>
<g fill="rgb(0%, 0%, 0%)" fill-opacity="1">
<use xlink:href="#glyph-5-0" x="61.764" y="165.119"/>
</g>
<g fill="rgb(0%, 0%, 0%)" fill-opacity="1">
<use xlink:href="#glyph-3-6" x="67.88" y="165.119"/>
</g>
<g fill="rgb(0%, 0%, 0%)" fill-opacity="1">
<use xlink:href="#glyph-0-2" x="74.841" y="152.463"/>
</g>
<g fill="rgb(0%, 0%, 0%)" fill-opacity="1">
<use xlink:href="#glyph-3-5" x="82.812" y="153.957"/>
</g>
<g fill="rgb(0%, 0%, 0%)" fill-opacity="1">
<use xlink:href="#glyph-0-3" x="86.378" y="152.463"/>
</g>
<g fill="rgb(0%, 0%, 0%)" fill-opacity="1">
<use xlink:href="#glyph-3-5" x="91.16" y="144.948"/>
</g>
<g fill="rgb(0%, 0%, 0%)" fill-opacity="1">
<use xlink:href="#glyph-3-2" x="91.16" y="153.431"/>
</g>
<g fill="rgb(0%, 0%, 0%)" fill-opacity="1">
<use xlink:href="#glyph-0-3" x="95.341" y="152.463"/>
</g>
<g fill="rgb(0%, 0%, 0%)" fill-opacity="1">
<use xlink:href="#glyph-3-0" x="100.122" y="148.349"/>
</g>
<g fill="rgb(0%, 0%, 0%)" fill-opacity="1">
<use xlink:href="#glyph-3-2" x="100.122" y="154.926"/>
</g>
<g fill="rgb(0%, 0%, 0%)" fill-opacity="1">
<use xlink:href="#glyph-6-0" x="106.517" y="152.463"/>
</g>
<g fill="rgb(0%, 0%, 0%)" fill-opacity="1">
<use xlink:href="#glyph-3-1" x="120.885" y="140.01"/>
</g>
<g fill="rgb(0%, 0%, 0%)" fill-opacity="1">
<use xlink:href="#glyph-4-0" x="116.48" y="142.998"/>
</g>
<g fill="rgb(0%, 0%, 0%)" fill-opacity="1">
<use xlink:href="#glyph-3-2" x="117.506" y="165.099"/>
</g>
<g fill="rgb(0%, 0%, 0%)" fill-opacity="1">
<use xlink:href="#glyph-5-0" x="121.189" y="165.099"/>
</g>
<g fill="rgb(0%, 0%, 0%)" fill-opacity="1">
<use xlink:href="#glyph-3-3" x="127.305" y="165.099"/>
</g>
<g fill="rgb(0%, 0%, 0%)" fill-opacity="1">
<use xlink:href="#glyph-0-4" x="132.531" y="152.463"/>
</g>
<g fill="rgb(0%, 0%, 0%)" fill-opacity="1">
<use xlink:href="#glyph-3-2" x="137.232" y="153.957"/>
</g>
<g fill="rgb(0%, 0%, 0%)" fill-opacity="1">
<use xlink:href="#glyph-0-3" x="141.413" y="152.463"/>
</g>
<g fill="rgb(0%, 0%, 0%)" fill-opacity="1">
<use xlink:href="#glyph-3-0" x="146.195" y="148.349"/>
</g>
<g fill="rgb(0%, 0%, 0%)" fill-opacity="1">
<use xlink:href="#glyph-3-2" x="146.195" y="154.926"/>
</g>
<g fill="rgb(0%, 0%, 0%)" fill-opacity="1">
<use xlink:href="#glyph-1-2" x="32.129" y="192.618"/>
</g>
<g fill="rgb(0%, 0%, 0%)" fill-opacity="1">
<use xlink:href="#glyph-3-1" x="47.051" y="180.164"/>
</g>
<g fill="rgb(0%, 0%, 0%)" fill-opacity="1">
<use xlink:href="#glyph-4-0" x="42.645" y="183.153"/>
</g>
<g fill="rgb(0%, 0%, 0%)" fill-opacity="1">
<use xlink:href="#glyph-3-2" x="43.672" y="205.254"/>
</g>
<g fill="rgb(0%, 0%, 0%)" fill-opacity="1">
<use xlink:href="#glyph-5-0" x="47.355" y="205.254"/>
</g>
<g fill="rgb(0%, 0%, 0%)" fill-opacity="1">
<use xlink:href="#glyph-3-3" x="53.471" y="205.254"/>
</g>
<g fill="rgb(0%, 0%, 0%)" fill-opacity="1">
<use xlink:href="#glyph-3-4" x="63.009" y="180.164"/>
</g>
<g fill="rgb(0%, 0%, 0%)" fill-opacity="1">
<use xlink:href="#glyph-4-0" x="58.743" y="183.153"/>
</g>
<g fill="rgb(0%, 0%, 0%)" fill-opacity="1">
<use xlink:href="#glyph-3-5" x="58.696" y="205.274"/>
</g>
<g fill="rgb(0%, 0%, 0%)" fill-opacity="1">
<use xlink:href="#glyph-5-0" x="61.764" y="205.274"/>
</g>
<g fill="rgb(0%, 0%, 0%)" fill-opacity="1">
<use xlink:href="#glyph-3-6" x="67.881" y="205.274"/>
</g>
<g fill="rgb(0%, 0%, 0%)" fill-opacity="1">
<use xlink:href="#glyph-0-2" x="74.841" y="192.618"/>
</g>
<g fill="rgb(0%, 0%, 0%)" fill-opacity="1">
<use xlink:href="#glyph-3-5" x="82.812" y="194.112"/>
</g>
<g fill="rgb(0%, 0%, 0%)" fill-opacity="1">
<use xlink:href="#glyph-0-3" x="86.378" y="192.618"/>
</g>
<g fill="rgb(0%, 0%, 0%)" fill-opacity="1">
<use xlink:href="#glyph-3-0" x="91.16" y="185.103"/>
</g>
<g fill="rgb(0%, 0%, 0%)" fill-opacity="1">
<use xlink:href="#glyph-5-1" x="93.252" y="185.103"/>
</g>
<g fill="rgb(0%, 0%, 0%)" fill-opacity="1">
<use xlink:href="#glyph-3-5" x="99.368" y="185.103"/>
</g>
<g fill="rgb(0%, 0%, 0%)" fill-opacity="1">
<use xlink:href="#glyph-3-2" x="91.16" y="193.586"/>
</g>
<g fill="rgb(0%, 0%, 0%)" fill-opacity="1">
<use xlink:href="#glyph-6-0" x="105.148" y="192.618"/>
</g>
<g fill="rgb(0%, 0%, 0%)" fill-opacity="1">
<use xlink:href="#glyph-3-1" x="119.517" y="180.164"/>
</g>
<g fill="rgb(0%, 0%, 0%)" fill-opacity="1">
<use xlink:href="#glyph-4-0" x="115.111" y="183.153"/>
</g>
<g fill="rgb(0%, 0%, 0%)" fill-opacity="1">
<use xlink:href="#glyph-3-2" x="116.138" y="205.254"/>
</g>
<g fill="rgb(0%, 0%, 0%)" fill-opacity="1">
<use xlink:href="#glyph-5-0" x="119.82" y="205.254"/>
</g>
<g fill="rgb(0%, 0%, 0%)" fill-opacity="1">
<use xlink:href="#glyph-3-3" x="125.936" y="205.254"/>
</g>
<g fill="rgb(0%, 0%, 0%)" fill-opacity="1">
<use xlink:href="#glyph-0-4" x="131.162" y="192.618"/>
</g>
<g fill="rgb(0%, 0%, 0%)" fill-opacity="1">
<use xlink:href="#glyph-3-2" x="135.864" y="194.112"/>
</g>
<g fill="rgb(0%, 0%, 0%)" fill-opacity="1">
<use xlink:href="#glyph-0-3" x="140.044" y="192.618"/>
</g>
<g fill="rgb(0%, 0%, 0%)" fill-opacity="1">
<use xlink:href="#glyph-3-0" x="144.826" y="188.504"/>
</g>
<g fill="rgb(0%, 0%, 0%)" fill-opacity="1">
<use xlink:href="#glyph-3-2" x="144.826" y="195.081"/>
</g>
<g fill="rgb(0%, 0%, 0%)" fill-opacity="1">
<use xlink:href="#glyph-1-2" x="32.129" y="232.773"/>
</g>
<g fill="rgb(0%, 0%, 0%)" fill-opacity="1">
<use xlink:href="#glyph-3-4" x="46.958" y="220.319"/>
</g>
<g fill="rgb(0%, 0%, 0%)" fill-opacity="1">
<use xlink:href="#glyph-4-0" x="42.692" y="223.308"/>
</g>
<g fill="rgb(0%, 0%, 0%)" fill-opacity="1">
<use xlink:href="#glyph-3-5" x="42.645" y="245.429"/>
</g>
<g fill="rgb(0%, 0%, 0%)" fill-opacity="1">
<use xlink:href="#glyph-5-0" x="45.714" y="245.429"/>
</g>
<g fill="rgb(0%, 0%, 0%)" fill-opacity="1">
<use xlink:href="#glyph-3-6" x="51.83" y="245.429"/>
</g>
<g fill="rgb(0%, 0%, 0%)" fill-opacity="1">
<use xlink:href="#glyph-3-1" x="63.196" y="220.319"/>
</g>
<g fill="rgb(0%, 0%, 0%)" fill-opacity="1">
<use xlink:href="#glyph-4-0" x="58.79" y="223.308"/>
</g>
<g fill="rgb(0%, 0%, 0%)" fill-opacity="1">
<use xlink:href="#glyph-3-2" x="59.817" y="245.408"/>
</g>
<g fill="rgb(0%, 0%, 0%)" fill-opacity="1">
<use xlink:href="#glyph-5-0" x="63.5" y="245.408"/>
</g>
<g fill="rgb(0%, 0%, 0%)" fill-opacity="1">
<use xlink:href="#glyph-3-3" x="69.616" y="245.408"/>
</g>
<g fill="rgb(0%, 0%, 0%)" fill-opacity="1">
<use xlink:href="#glyph-1-0" x="74.841" y="232.773"/>
</g>
<g fill="rgb(0%, 0%, 0%)" fill-opacity="1">
<use xlink:href="#glyph-0-3" x="78.716" y="232.773"/>
</g>
<g fill="rgb(0%, 0%, 0%)" fill-opacity="1">
<use xlink:href="#glyph-3-2" x="83.497" y="234.267"/>
</g>
<g fill="rgb(0%, 0%, 0%)" fill-opacity="1">
<use xlink:href="#glyph-1-1" x="87.678" y="232.773"/>
</g>
<g fill="rgb(0%, 0%, 0%)" fill-opacity="1">
<use xlink:href="#glyph-3-0" x="91.553" y="227.617"/>
</g>
<g fill="rgb(0%, 0%, 0%)" fill-opacity="1">
<use xlink:href="#glyph-5-1" x="93.645" y="227.617"/>
</g>
<g fill="rgb(0%, 0%, 0%)" fill-opacity="1">
<use xlink:href="#glyph-3-5" x="99.761" y="227.617"/>
</g>
<g fill="rgb(0%, 0%, 0%)" fill-opacity="1">
<use xlink:href="#glyph-0-2" x="104.988" y="232.773"/>
</g>
<g fill="rgb(0%, 0%, 0%)" fill-opacity="1">
<use xlink:href="#glyph-3-5" x="112.959" y="234.267"/>
</g>
<g fill="rgb(0%, 0%, 0%)" fill-opacity="1">
<use xlink:href="#glyph-6-0" x="118.739" y="232.773"/>
</g>
<g fill="rgb(0%, 0%, 0%)" fill-opacity="1">
<use xlink:href="#glyph-3-1" x="133.107" y="220.319"/>
</g>
<g fill="rgb(0%, 0%, 0%)" fill-opacity="1">
<use xlink:href="#glyph-4-0" x="128.701" y="223.308"/>
</g>
<g fill="rgb(0%, 0%, 0%)" fill-opacity="1">
<use xlink:href="#glyph-3-2" x="129.728" y="245.408"/>
</g>
<g fill="rgb(0%, 0%, 0%)" fill-opacity="1">
<use xlink:href="#glyph-5-0" x="133.411" y="245.408"/>
</g>
<g fill="rgb(0%, 0%, 0%)" fill-opacity="1">
<use xlink:href="#glyph-3-3" x="139.527" y="245.408"/>
</g>
<g fill="rgb(0%, 0%, 0%)" fill-opacity="1">
<use xlink:href="#glyph-1-0" x="144.752" y="232.773"/>
</g>
<g fill="rgb(0%, 0%, 0%)" fill-opacity="1">
<use xlink:href="#glyph-0-3" x="148.627" y="232.773"/>
</g>
<g fill="rgb(0%, 0%, 0%)" fill-opacity="1">
<use xlink:href="#glyph-3-2" x="153.409" y="234.267"/>
</g>
<g fill="rgb(0%, 0%, 0%)" fill-opacity="1">
<use xlink:href="#glyph-1-1" x="157.589" y="232.773"/>
</g>
<g fill="rgb(0%, 0%, 0%)" fill-opacity="1">
<use xlink:href="#glyph-3-0" x="161.464" y="227.763"/>
</g>
<g fill="rgb(0%, 0%, 0%)" fill-opacity="1">
<use xlink:href="#glyph-0-4" x="165.715" y="232.773"/>
</g>
<g fill="rgb(0%, 0%, 0%)" fill-opacity="1">
<use xlink:href="#glyph-3-2" x="170.417" y="234.267"/>
</g>
<g fill="rgb(0%, 0%, 0%)" fill-opacity="1">
<use xlink:href="#glyph-1-2" x="32.129" y="272.927"/>
</g>
<g fill="rgb(0%, 0%, 0%)" fill-opacity="1">
<use xlink:href="#glyph-3-4" x="46.958" y="260.474"/>
</g>
<g fill="rgb(0%, 0%, 0%)" fill-opacity="1">
<use xlink:href="#glyph-4-0" x="42.692" y="263.463"/>
</g>
<g clip-path="url(#clip-1)">
<g fill="rgb(0%, 0%, 0%)" fill-opacity="1">
<use xlink:href="#glyph-3-5" x="42.646" y="285.584"/>
</g>
</g>
<g fill="rgb(0%, 0%, 0%)" fill-opacity="1">
<use xlink:href="#glyph-5-0" x="45.714" y="285.584"/>
</g>
<g fill="rgb(0%, 0%, 0%)" fill-opacity="1">
<use xlink:href="#glyph-3-6" x="51.83" y="285.584"/>
</g>
<g fill="rgb(0%, 0%, 0%)" fill-opacity="1">
<use xlink:href="#glyph-0-5" x="58.79" y="272.927"/>
</g>
<g fill="rgb(0%, 0%, 0%)" fill-opacity="1">
<use xlink:href="#glyph-3-0" x="67.199" y="274.422"/>
<use xlink:href="#glyph-3-5" x="69.29114" y="274.422"/>
</g>
<g fill="rgb(0%, 0%, 0%)" fill-opacity="1">
<use xlink:href="#glyph-0-2" x="72.857" y="272.927"/>
</g>
<g fill="rgb(0%, 0%, 0%)" fill-opacity="1">
<use xlink:href="#glyph-3-5" x="80.828" y="274.422"/>
</g>
<g fill="rgb(0%, 0%, 0%)" fill-opacity="1">
<use xlink:href="#glyph-6-0" x="86.608" y="272.927"/>
</g>
<g fill="rgb(0%, 0%, 0%)" fill-opacity="1">
<use xlink:href="#glyph-0-6" x="96.571" y="272.927"/>
</g>
<g fill="rgb(0%, 0%, 0%)" fill-opacity="1">
<use xlink:href="#glyph-3-0" x="102.707" y="274.422"/>
</g>
<g fill="rgb(0%, 0%, 0%)" fill-opacity="1">
<use xlink:href="#glyph-0-2" x="125.223" y="272.927"/>
<use xlink:href="#glyph-0-7" x="133.19308" y="272.927"/>
<use xlink:href="#glyph-0-8" x="138.811986" y="272.927"/>
<use xlink:href="#glyph-0-9" x="143.514334" y="272.927"/>
<use xlink:href="#glyph-0-8" x="147.858027" y="272.927"/>
</g>
<g fill="rgb(0%, 0%, 0%)" fill-opacity="1">
<use xlink:href="#glyph-0-5" x="162.522974" y="272.927"/>
</g>
<g fill="rgb(0%, 0%, 0%)" fill-opacity="1">
<use xlink:href="#glyph-3-0" x="170.931" y="274.422"/>
<use xlink:href="#glyph-3-5" x="173.02314" y="274.422"/>
</g>
<g fill="rgb(0%, 0%, 0%)" fill-opacity="1">
<use xlink:href="#glyph-1-2" x="179.357" y="272.927"/>
</g>
<g fill="rgb(0%, 0%, 0%)" fill-opacity="1">
<use xlink:href="#glyph-3-1" x="194.279" y="260.474"/>
</g>
<g fill="rgb(0%, 0%, 0%)" fill-opacity="1">
<use xlink:href="#glyph-4-0" x="189.873" y="263.463"/>
</g>
<g fill="rgb(0%, 0%, 0%)" fill-opacity="1">
<use xlink:href="#glyph-3-2" x="190.9" y="285.563"/>
</g>
<g fill="rgb(0%, 0%, 0%)" fill-opacity="1">
<use xlink:href="#glyph-5-0" x="194.582" y="285.563"/>
</g>
<g fill="rgb(0%, 0%, 0%)" fill-opacity="1">
<use xlink:href="#glyph-3-3" x="200.698" y="285.563"/>
</g>
<g fill="rgb(0%, 0%, 0%)" fill-opacity="1">
<use xlink:href="#glyph-1-0" x="205.924" y="272.927"/>
</g>
<g fill="rgb(0%, 0%, 0%)" fill-opacity="1">
<use xlink:href="#glyph-0-3" x="209.798" y="272.927"/>
</g>
<g fill="rgb(0%, 0%, 0%)" fill-opacity="1">
<use xlink:href="#glyph-3-2" x="214.58" y="274.422"/>
</g>
<g fill="rgb(0%, 0%, 0%)" fill-opacity="1">
<use xlink:href="#glyph-1-1" x="218.761" y="272.927"/>
</g>
<g fill="rgb(0%, 0%, 0%)" fill-opacity="1">
<use xlink:href="#glyph-3-0" x="222.636" y="267.772"/>
</g>
<g fill="rgb(0%, 0%, 0%)" fill-opacity="1">
<use xlink:href="#glyph-5-1" x="224.728" y="267.772"/>
</g>
<g fill="rgb(0%, 0%, 0%)" fill-opacity="1">
<use xlink:href="#glyph-3-5" x="230.844" y="267.772"/>
</g>
<g fill="rgb(0%, 0%, 0%)" fill-opacity="1">
<use xlink:href="#glyph-0-10" x="246.033" y="272.927"/>
<use xlink:href="#glyph-0-11" x="251.452654" y="272.927"/>
<use xlink:href="#glyph-0-0" x="256.712907" y="272.927"/>
</g>
<g fill="rgb(0%, 0%, 0%)" fill-opacity="1">
<use xlink:href="#glyph-0-6" x="272.453815" y="272.927"/>
</g>
<g fill="rgb(0%, 0%, 0%)" fill-opacity="1">
<use xlink:href="#glyph-3-0" x="278.592" y="274.422"/>
</g>
<g fill="rgb(0%, 0%, 0%)" fill-opacity="1">
<use xlink:href="#glyph-1-2" x="283.95" y="272.927"/>
</g>
<g fill="rgb(0%, 0%, 0%)" fill-opacity="1">
<use xlink:href="#glyph-3-1" x="298.872" y="260.474"/>
</g>
<g fill="rgb(0%, 0%, 0%)" fill-opacity="1">
<use xlink:href="#glyph-4-0" x="294.466" y="263.463"/>
</g>
<g fill="rgb(0%, 0%, 0%)" fill-opacity="1">
<use xlink:href="#glyph-3-2" x="295.493" y="285.563"/>
</g>
<g fill="rgb(0%, 0%, 0%)" fill-opacity="1">
<use xlink:href="#glyph-5-0" x="299.176" y="285.563"/>
</g>
<g fill="rgb(0%, 0%, 0%)" fill-opacity="1">
<use xlink:href="#glyph-3-3" x="305.292" y="285.563"/>
</g>
<g fill="rgb(0%, 0%, 0%)" fill-opacity="1">
<use xlink:href="#glyph-1-0" x="310.517" y="272.927"/>
</g>
<g fill="rgb(0%, 0%, 0%)" fill-opacity="1">
<use xlink:href="#glyph-0-3" x="314.392" y="272.927"/>
</g>
<g fill="rgb(0%, 0%, 0%)" fill-opacity="1">
<use xlink:href="#glyph-3-2" x="319.174" y="274.422"/>
</g>
<g fill="rgb(0%, 0%, 0%)" fill-opacity="1">
<use xlink:href="#glyph-1-1" x="323.354" y="272.927"/>
</g>
<g fill="rgb(0%, 0%, 0%)" fill-opacity="1">
<use xlink:href="#glyph-3-0" x="327.229" y="267.918"/>
</g>
<g fill="rgb(0%, 0%, 0%)" fill-opacity="1">
<use xlink:href="#glyph-0-4" x="331.48" y="272.927"/>
</g>
<g fill="rgb(0%, 0%, 0%)" fill-opacity="1">
<use xlink:href="#glyph-3-2" x="336.182" y="274.422"/>
</g>
</svg>
